<?xml version="1.0" encoding="UTF-8" standalone="no"?><!DOCTYPE svg PUBLIC "-//W3C//DTD SVG 1.1//EN" "http://www.w3.org/Graphics/SVG/1.1/DTD/svg11.dtd"><svg width="100%" height="100%" viewBox="0 0 7082 1249" version="1.1" xmlns="http://www.w3.org/2000/svg" xmlns:xlink="http://www.w3.org/1999/xlink" xml:space="preserve" xmlns:serif="http://www.serif.com/" style="fill-rule:evenodd;clip-rule:evenodd;stroke-linejoin:round;stroke-miterlimit:2;"><rect id="Página-1" serif:id="Página 1" x="-435.485" y="-1457.413" width="8000" height="4500" style="fill:none;"/><g id="Camada-1" serif:id="Camada 1"><path d="M703.801,1064.708c144.087,37.092 293.071,26.521 434.892,-33.908c280.112,-119.371 359.158,-323.038 379.442,-556.396c0.071,3.817 0.096,7.621 0.096,11.4c0,421.438 -341.629,763.042 -763.021,763.042c-513.663,0 -848.763,-495.75 -703.692,-981.617c-56.517,534.721 301.167,801.229 652.283,797.479m507.467,-257.65c-95.671,136.771 -239.671,218.913 -394.138,246.85c103.575,9.208 207.292,-7.792 309.525,-51.371c38.837,-16.537 73.596,-34.863 104.754,-54.683c83.112,-58.129 152.862,-137.813 201.633,-233.829c82.588,-192.325 56.721,-433.371 54.637,-670.375c-0.079,-6.233 2.871,-41.896 -34.325,-43.121l4.167,-0.029l-129.196,0c-29.363,0 -43.85,13.783 -43.85,43.15l0,421.642c0,102.638 4.296,230.971 -73.208,341.767" style="fill:#002859;"/><path d="M893.564,30.727c-41.929,-6.204 -98.904,-3.383 -140.346,3.167c-113.242,17.871 -204.354,73.383 -262.004,158.963c-41.537,61.617 -65.729,138.842 -66.154,221.058c14.213,-50.342 38.113,-97.904 71.883,-139.167c111.492,-136.087 314.325,-179.267 462.379,-78.021c34.129,23.342 60.35,50.483 81.829,78.421l160.867,0c-2.221,-4.375 -4.954,-9.179 -8.258,-14.55c-6.821,-11.067 -23.321,-39.171 -36.15,-49.079c-63.912,-87.562 -156.767,-152.425 -264.046,-180.792m27.404,898.929c-301.65,99.754 -618.25,-101.025 -627.675,-422.708c-7.708,-263.913 199.967,-484.108 463.883,-491.829c46.933,-1.367 92.471,4.063 135.692,15.433c-32.413,-8.312 -108.308,-5.033 -141.075,-1.021c-55.571,6.788 -103.892,22.5 -145.688,43.775c-66.312,33.808 -115.646,84.092 -148.963,145.467c-43.75,80.475 -58.108,174.5 -45.375,264.746c-24.621,235.779 148.875,494.921 509.2,446.138" style="fill:#002859;"/><path d="M840.1,856.313c-37.333,10.267 -80.488,16.8 -130.612,18.254c-67.771,1.987 55.871,30.558 129.587,28.404c125.246,-3.638 187.846,-59.921 244.129,-106.388c-73.558,42.883 -158.629,62.412 -243.104,59.729m370.767,-177.646c-81.5,87.921 -192.725,140.317 -306.029,153.713c81.492,-38.938 126.125,-98.758 155.779,-153.713l150.25,0Zm-4.6,9.508c1.162,-2.188 2.217,-4.246 3.125,-6.163c-19.275,26.737 -41.05,50.342 -64.812,70.858c7.379,-3.912 14.971,-7.292 22.912,-10.075c12.854,-4.517 31.646,-41.392 38.775,-54.621" style="fill:#002859;"/><path d="M1210.934,678.599l1.037,-2.387l-3.621,5.142l2.583,-2.754Zm-320.833,-648.704c-33.788,-7.454 -106.446,-4.275 -138.304,-0.362c-55.575,6.787 -103.896,22.496 -145.692,43.775c-66.312,33.808 -115.646,84.092 -148.963,145.467c-62.662,115.267 -65.062,258.283 -13.892,378.225c130.117,304.983 574.425,351.417 766.296,84.775c-71.675,164.429 -233.292,281.512 -424.467,287.125c-263.908,7.717 -484.108,-199.992 -491.833,-463.896c-9.383,-320.5 291.058,-554.425 596.854,-475.108m3.388,0.862l-0.183,-0.071l-0.237,-0.033l0.421,0.104Z" style="fill:#002859;"/><path d="M788.236,268.325c119.525,0 216.425,96.904 216.425,216.417c0,119.55 -96.9,216.467 -216.425,216.467c-119.554,0 -216.458,-96.917 -216.458,-216.467c0,-119.512 96.904,-216.417 216.458,-216.417" style="fill:#002859;"/><path d="M1519.167,462.204c-1.442,100.925 -10.508,194.583 -44.867,287.217c-105.671,285.029 -378.171,499.425 -716,499.425c-421.392,0 -758.3,-341.367 -758.3,-762.775l0.029,-81.1l0,-360.725c0,-28.267 14.783,-44.246 43.05,-44.246l141.154,0c1.133,0 2.246,0.029 3.35,0.108l-4.867,-0.108c24.496,1.063 37.496,15.642 37.55,43.65c2.383,399.767 -65.975,792.275 375.092,983.708c176.512,76.583 365.55,79.208 543.333,3.442c285.017,-121.462 361.883,-330.167 380.475,-568.596" style="fill:#002859;"/><path d="M2379.965,938.361c-123.558,32.604 -419.833,59.654 -511.708,-45.042c-42.771,-48.717 -54.087,-116.567 -54.087,-181.287l0,-502.517l167.867,0l0,484.021c0,135.813 100.938,156.892 230.042,140.058l0,-618.608l167.888,-0l0,723.375Z" style="fill:#002859;"/><path d="M2461.911,435.088c26.025,-7.533 59.596,-14.554 100.654,-21.05c41.092,-6.521 84.229,-9.775 129.421,-9.775c45.879,0 84.05,5.996 114.529,17.962c30.471,12 54.596,28.933 72.413,50.875c17.8,21.913 30.479,47.933 38.004,78.05c7.521,30.129 11.296,63.663 11.296,100.658l0,305.05l-153.054,0l0,-286.558c0,-49.321 -6.5,-84.254 -19.504,-104.771c-13.008,-20.542 -37.321,-30.821 -72.929,-30.821c-10.929,0 -22.588,0.533 -34.917,1.537c-12.308,1.058 -23.279,2.25 -32.862,3.6l0,417.012l-153.05,0l0,-521.771Z" style="fill:#002859;"/><path d="M3172.493,260.49c0,28.071 -9.083,50.146 -27.229,66.221c-18.138,16.104 -39.558,24.167 -64.2,24.167c-24.642,0 -46.054,-8.062 -64.179,-24.167c-18.163,-16.075 -27.229,-38.15 -27.229,-66.221c0,-28.096 9.067,-50.179 27.229,-66.25c18.125,-16.112 39.537,-24.158 64.179,-24.158c24.642,0 46.062,8.046 64.2,24.158c18.146,16.071 27.229,38.154 27.229,66.25m-14.383,696.367l-153.054,0l0,-540.267l153.054,-0l0,540.267Z" style="fill:#002859;"/><path d="M3588.748,971.231c-115.717,0 -203.883,-32.175 -264.475,-96.542c-60.608,-64.358 -90.896,-155.775 -90.896,-274.25c0,-58.862 9.242,-111.425 27.738,-157.667c18.475,-46.2 43.821,-85.238 75.992,-117.088c32.183,-31.821 70.538,-55.983 115.05,-72.392c44.5,-16.437 92.783,-24.658 144.808,-24.658c30.125,0 57.517,2.225 82.175,6.662c24.646,4.483 46.225,9.583 64.704,15.417c18.488,5.833 33.904,11.804 46.233,17.963c12.329,6.167 21.221,10.979 26.692,14.379l-46.217,129.429c-21.908,-11.629 -47.408,-21.575 -76.529,-29.8c-29.092,-8.213 -62.121,-12.292 -99.108,-12.292c-24.646,0 -48.787,4.079 -72.404,12.292c-23.633,8.225 -44.508,21.413 -62.654,39.542c-18.15,18.162 -32.696,41.625 -43.662,70.367c-10.942,28.762 -16.425,63.696 -16.425,104.758c0,32.875 3.592,63.538 10.792,91.938c7.183,28.4 18.825,52.896 34.912,73.45c16.096,20.55 37.15,36.788 63.167,48.783c26.025,12 57.517,17.967 94.487,17.967c23.292,0 44.167,-1.362 62.667,-4.117c18.488,-2.712 34.913,-5.992 49.296,-9.733c14.387,-3.783 27.042,-8.067 38,-12.871c10.967,-4.767 20.892,-9.212 29.792,-13.317l44.167,128.358c-22.592,13.721 -54.442,26.05 -95.517,36.988c-41.088,10.971 -88.675,16.433 -142.783,16.433" style="fill:#002859;"/><path d="M4174.963,632.283c-0.704,-13.025 -2.921,-25.683 -6.683,-38.013c-3.758,-12.292 -9.592,-23.271 -17.458,-32.846c-7.875,-9.575 -17.8,-17.471 -29.783,-23.633c-11.992,-6.167 -26.879,-9.25 -44.679,-9.25c-17.129,0 -31.85,2.917 -44.179,8.763c-12.312,5.796 -22.583,13.479 -30.804,23.096c-8.221,9.575 -14.554,20.712 -19.017,33.375c-4.446,12.663 -7.7,25.483 -9.75,38.508l202.354,0Zm-359.504,58.538c0,-47.929 7.362,-89.854 22.096,-125.812c14.713,-35.962 34.071,-65.892 58.033,-89.85c23.963,-24 51.525,-42.133 82.671,-54.45c31.154,-12.329 63.171,-18.496 96.05,-18.496c76.675,0 137.279,23.462 181.787,70.354c44.512,46.904 66.762,115.904 66.762,206.983c0,8.879 -0.35,18.658 -1.029,29.263c-0.671,10.604 -1.371,20.017 -2.05,28.242l-347.171,0c3.429,31.513 18.137,56.504 44.179,74.962c26.017,18.492 60.929,27.742 104.771,27.742c28.058,0 55.617,-2.554 82.667,-7.688c27.046,-5.133 49.142,-11.467 66.254,-18.992l20.542,124.258c-8.212,4.104 -19.158,8.208 -32.871,12.317c-13.696,4.121 -28.942,7.725 -45.704,10.812c-16.775,3.079 -34.75,5.633 -53.917,7.683c-19.179,2.062 -38.354,3.079 -57.529,3.079c-48.625,0 -90.892,-7.179 -126.854,-21.575c-35.942,-14.379 -65.733,-34.071 -89.354,-59.05c-23.633,-24.987 -41.075,-54.587 -52.379,-88.829c-11.304,-34.233 -16.954,-71.221 -16.954,-110.954" style="fill:#002859;"/><path d="M4555.02,846.95c28.079,0 47.929,-2.713 59.579,-8.217c11.637,-5.475 17.463,-16.071 17.463,-31.846c0,-12.304 -7.538,-23.112 -22.6,-32.358c-15.058,-9.237 -37.996,-19.679 -68.821,-31.312c-23.962,-8.879 -45.704,-18.133 -65.212,-27.742c-19.517,-9.579 -36.125,-21.042 -49.821,-34.404c-13.692,-13.358 -24.3,-29.258 -31.842,-47.758c-7.533,-18.5 -11.3,-40.733 -11.3,-66.746c0,-50.675 18.842,-90.75 56.496,-120.175c37.667,-29.467 89.367,-44.179 155.092,-44.179c32.879,0 64.367,2.913 94.492,8.746c30.146,5.808 54.104,12.129 71.904,18.992l-26.7,119.146c-17.8,-6.163 -37.158,-11.625 -58.033,-16.433c-20.896,-4.804 -44.342,-7.2 -70.358,-7.2c-47.925,0 -71.904,13.358 -71.904,40.067c0,6.171 1.025,11.642 3.083,16.45c2.05,4.771 6.154,9.413 12.321,13.854c6.163,4.442 14.55,9.246 25.179,14.379c10.604,5.304 24.121,10.942 40.562,17.104c33.558,12.492 61.279,24.654 83.188,36.825c21.921,11.958 39.2,25.15 51.871,39.004c12.675,14.054 21.575,29.625 26.708,46.758c5.142,17.117 7.708,36.796 7.708,59.396c0,53.238 -20.029,93.633 -60.083,121.038c-40.05,27.217 -96.729,40.892 -169.996,40.892c-47.921,0 -87.808,-4.1 -119.658,-12.329c-31.829,-8.208 -53.925,-15.038 -66.238,-20.538l25.667,-124.287c26.021,10.275 52.733,18.321 80.113,24.167c27.392,5.796 54.45,8.708 81.142,8.708" style="fill:#002859;"/><path d="M5304.353,938.361c-26.017,7.525 -59.579,14.55 -100.654,21.079c-41.1,6.5 -84.233,9.746 -129.429,9.746c-45.858,0 -84.046,-6.167 -114.521,-18.496c-30.475,-12.329 -54.604,-29.6 -72.392,-51.863c-17.821,-22.246 -30.488,-48.796 -38.025,-79.621c-7.521,-30.787 -11.283,-64.692 -11.283,-101.675l0,-300.942l153.033,0l0,282.475c0,49.283 6.504,84.887 19.512,106.821c13.008,21.904 37.312,32.846 72.925,32.846c10.954,0 22.596,-0.492 34.908,-1.529c12.329,-1.025 23.292,-2.213 32.879,-3.608l0,-417.004l153.046,0l0,521.771Z" style="fill:#002859;"/><path d="M5683.152,670.302c0,-49.321 -6.325,-84.254 -19.012,-104.771c-12.65,-20.542 -34.392,-30.821 -65.2,-30.821c-9.6,0 -19.521,0.533 -29.796,1.533c-10.271,1.062 -20.2,2.25 -29.783,3.604l0,417.008l-153.033,0l0,-521.767c13.017,-3.417 28.246,-7.029 45.704,-10.812c17.45,-3.742 35.946,-7.188 55.467,-10.238c19.508,-3.083 39.546,-5.496 60.087,-7.2c20.533,-1.717 40.729,-2.575 60.604,-2.575c39.017,0 70.688,4.971 95.004,14.912c24.304,9.921 44.321,21.708 60.083,35.429c21.904,-15.737 47.067,-28.071 75.483,-36.983c28.425,-8.879 54.613,-13.358 78.587,-13.358c43.133,0 78.567,5.996 106.3,17.962c27.721,12 49.812,28.933 66.246,50.875c16.429,21.908 27.721,47.933 33.896,78.05c6.163,30.129 9.242,63.658 9.242,100.658l0,305.046l-153.033,0l0,-286.554c0,-49.321 -6.342,-84.254 -19.013,-104.771c-12.65,-20.542 -34.392,-30.821 -65.217,-30.821c-8.217,0 -19.692,2.058 -34.404,6.162c-14.717,4.117 -26.883,9.25 -36.454,15.417c4.783,15.742 7.871,32.346 9.229,49.812c1.379,17.471 2.05,36.133 2.05,55.987l0,294.767l-153.038,0l0,-286.554Z" style="fill:#002859;"/><path d="M6410.937,402.213c45.188,0 82.858,5.129 112.983,15.408c30.121,10.275 54.258,24.992 72.417,44.179c18.133,19.154 30.967,42.458 38.517,69.825c7.525,27.388 11.304,57.871 11.304,91.408l0,318.408c-21.938,4.808 -52.388,10.438 -91.429,16.975c-39.021,6.487 -86.275,9.733 -141.742,9.733c-34.913,0 -66.579,-3.083 -95,-9.25c-28.421,-6.167 -52.892,-16.262 -73.442,-30.288c-20.542,-14.054 -36.292,-32.346 -47.246,-54.95c-10.95,-22.6 -16.438,-50.342 -16.438,-83.188c0,-31.517 6.329,-58.2 19.004,-80.142c12.671,-21.904 29.613,-39.371 50.846,-52.363c21.225,-13.029 45.538,-22.442 72.913,-28.242c27.387,-5.829 55.812,-8.75 85.254,-8.75c19.858,0 37.492,0.867 52.904,2.596c15.408,1.683 27.904,3.933 37.479,6.65l0,-14.375c0,-26.017 -7.871,-46.9 -23.617,-62.65c-15.754,-15.729 -43.129,-23.621 -82.175,-23.621c-26.021,0 -51.688,1.879 -77.025,5.662c-25.342,3.746 -47.262,9.05 -65.733,15.908l-19.521,-123.254c8.892,-2.758 20.029,-5.671 33.392,-8.721c13.329,-3.087 27.883,-5.829 43.65,-8.217c15.738,-2.417 32.35,-4.475 49.808,-6.162c17.471,-1.721 35.108,-2.583 52.896,-2.583m12.329,447.817c15.062,0 29.433,-0.321 43.137,-1.025c13.692,-0.696 24.646,-1.721 32.858,-3.079l0,-116.063c-6.162,-1.358 -15.392,-2.721 -27.729,-4.112c-12.329,-1.367 -23.625,-2.05 -33.892,-2.05c-14.375,0 -27.9,0.862 -40.575,2.575c-12.663,1.696 -23.796,4.933 -33.367,9.754c-9.604,4.804 -17.125,11.3 -22.613,19.517c-5.471,8.217 -8.212,18.496 -8.212,30.825c0,23.958 8.046,40.567 24.142,49.808c16.092,9.246 38.167,13.85 66.25,13.85" style="fill:#002859;"/><path d="M7055.498,552.177c-13.692,-3.417 -29.783,-7.021 -48.275,-10.8c-18.479,-3.75 -38.338,-5.633 -59.571,-5.633c-9.575,0 -21.046,0.858 -34.4,2.55c-13.363,1.717 -23.45,3.617 -30.296,5.658l0,412.904l-153.05,0l0,-511.5c27.388,-9.575 59.75,-18.654 97.079,-27.204c37.317,-8.583 78.904,-12.858 124.775,-12.858c8.221,0 18.15,0.529 29.8,1.546c11.625,1.037 23.275,2.396 34.904,4.117c11.642,1.696 23.296,3.75 34.929,6.133c11.65,2.421 21.575,5.337 29.788,8.75l-25.683,126.337Z" style="fill:#002859;"/></g></svg>