<svg width="538" height="538" viewBox="0 0 538 538" fill="none" xmlns="http://www.w3.org/2000/svg">
<path fill-rule="evenodd" clip-rule="evenodd" d="M299.937 300.686L298.868 301.075C299.358 300.619 299.837 300.151 300.306 299.673L299.937 300.686ZM301.008 237.698L300.747 236.979L300.081 236.737C300.395 237.053 300.704 237.373 301.008 237.698Z" fill="#FFC700"/>
<path fill-rule="evenodd" clip-rule="evenodd" d="M299.937 300.686L298.868 301.075C299.358 300.619 299.837 300.151 300.306 299.673L299.937 300.686ZM301.008 237.698L300.747 236.979L300.081 236.737C300.395 237.053 300.704 237.373 301.008 237.698Z" fill="#FFC700"/>
<path fill-rule="evenodd" clip-rule="evenodd" d="M299.937 300.686L298.868 301.075C299.358 300.619 299.837 300.151 300.306 299.673L299.937 300.686ZM301.008 237.698L300.747 236.979L300.081 236.737C300.395 237.053 300.704 237.373 301.008 237.698Z" fill="#FFC700"/>
<path fill-rule="evenodd" clip-rule="evenodd" d="M300.081 236.737L300.747 236.979L301.008 237.698C300.704 237.373 300.395 237.053 300.081 236.737ZM298.868 301.075L299.937 300.686L300.306 299.673C299.837 300.151 299.358 300.619 298.868 301.075Z" fill="#FFC700"/>
<path fill-rule="evenodd" clip-rule="evenodd" d="M138.041 27.8237L214.489 0L268.648 148.793L322.805 0.00582877L399.253 27.8296L336.26 200.894L509.657 137.786L537.482 214.231L387.862 268.685L538 323.329L510.175 399.774L337.07 336.771L399.99 509.634L323.541 537.457L268.648 386.648L213.753 537.463L137.305 509.64L200.14 337.008L27.825 399.722L0 323.277L149.997 268.685L0.517793 214.282L28.3428 137.837L200.95 200.658L138.041 27.8237ZM268.321 313.107C280.127 313.107 290.867 308.54 298.868 301.075C299.358 300.619 299.837 300.151 300.306 299.673C308.227 291.594 313.112 280.527 313.112 268.319C313.112 256.476 308.515 245.707 301.008 237.698C300.704 237.373 300.395 237.053 300.081 236.737C291.968 228.58 280.734 223.531 268.321 223.531C243.584 223.531 223.531 243.583 223.531 268.319C223.531 293.055 243.584 313.107 268.321 313.107Z" fill="#FFC700"/>
</svg>
