<?xml version="1.0" encoding="UTF-8" standalone="no"?><!DOCTYPE svg PUBLIC "-//W3C//DTD SVG 1.1//EN" "http://www.w3.org/Graphics/SVG/1.1/DTD/svg11.dtd"><svg width="100%" height="100%" viewBox="0 0 11222 4835" version="1.1" xmlns="http://www.w3.org/2000/svg" xmlns:xlink="http://www.w3.org/1999/xlink" xml:space="preserve" xmlns:serif="http://www.serif.com/" style="fill-rule:evenodd;clip-rule:evenodd;stroke-linejoin:round;stroke-miterlimit:2;"><rect id="Página-1" serif:id="Página 1" x="0.675" y="-2016.657" width="11220.458" height="8267.708" style="fill:none;"/><clipPath id="_clip1"><rect x="0.675" y="-2016.657" width="11220.458" height="8267.708"/></clipPath><g clip-path="url(#_clip1)"><g id="Camada-1" serif:id="Camada 1"><path d="M11221.508,246.082l-6.767,781.421c-2183.888,-808.358 -4521.629,86.821 -5597.471,2077.517c-1282.321,-1783.342 -4021.233,-1996.958 -5617.271,-554.396l0,-854.838c1636.258,-1095.517 3907.346,-1035.754 5483.462,300.688c1489.671,-1864.154 3687.212,-2358.163 5738.046,-1750.392" style="fill:#1c1c1c;fill-rule:nonzero;"/><path d="M11221.508,1541.756l-6.767,721.404c-1990.067,-1008.688 -4615.342,6.767 -4976.171,2571.654l-946.8,0c-583.838,-1843.858 -2353.775,-2441.854 -3806.862,-1874.3c-581.458,227.146 -1088.5,620.421 -1484.908,1198.25l0,-977.121c1553.817,-1723.954 4682.25,-1405.725 5704.092,891.675c861.479,-2517.904 3359.962,-3419.975 5517.417,-2531.563" style="fill:#1c1c1c;fill-rule:nonzero;"/></g></g></svg>