<svg width="341" height="134" viewBox="0 0 341 134" fill="none" xmlns="http://www.w3.org/2000/svg">
<g clip-path="url(#clip0_2887_12)">
<path fill-rule="evenodd" clip-rule="evenodd" d="M70.81 26.96H48.57L36 69.66H35.51L23.29 26.88H0L23.75 92.35H46.81L70.81 26.96ZM100.08 92.43H78.31L78.42 27H100.19L100.08 92.43ZM139.57 45.01V65.14C139.56 72.51 144.82 75.45 151.64 75.49C153.606 75.4535 155.565 75.2596 157.5 74.91V93.06C153.852 93.8833 150.119 94.2694 146.38 94.21C127.89 94.18 118.57 83.28 118.57 66.42V45.01H109.44V27.1H118.57V12H139.57V27.1H156.66V45.01H139.57ZM255.75 65.44L255.81 27.29L277.57 27.36L277.51 65.75C277.45 82.49 265.76 94.52 246.45 94.49C227.14 94.46 215.72 82.39 215.72 65.65L215.78 27.26H237.55L237.49 65.41C237.49 71.85 240.52 75.03 246.49 75.03C252.46 75.03 255.75 71.88 255.75 65.44ZM168.05 27.17H179.05L189.76 27.16H207.59V45.51H189.76L189.72 92.59H167.95L168.05 27.17ZM176.05 126.62V128.73L168 128.76V113.41H176.05V115.48H170.43V119.84H175.78V121.84H170.43V126.62H176.05ZM185.7 113.31C190.52 113.31 193.52 115.51 193.52 120.84C193.52 126.12 190 128.82 185.01 128.82C184.181 128.82 183.425 128.795 182.717 128.771C182.093 128.75 181.507 128.73 180.94 128.73V113.4C181.345 113.393 181.812 113.381 182.321 113.368C183.335 113.341 184.515 113.31 185.7 113.31ZM185.27 126.71C188.56 126.71 190.88 124.96 190.88 121.02C190.88 117.38 189.27 115.36 185.52 115.36C185.109 115.36 184.69 115.378 184.304 115.394C183.976 115.407 183.673 115.42 183.42 115.42V126.59C184.034 126.668 184.651 126.708 185.27 126.71ZM209.99 113.38V122.82C209.99 126.91 207.79 128.96 203.76 128.97C198.91 128.97 197.91 126.33 197.91 123.51V113.38H200.39V123.32C200.39 125.37 201.08 126.91 203.92 126.91C206.42 126.91 207.56 125.87 207.56 123V113.38H209.99ZM225.21 125.98L225.51 128.19C224.199 128.681 222.81 128.929 221.41 128.92C216.29 128.92 214.41 125.59 214.41 121.5C214.41 116.72 216.82 113.24 221.98 113.24C223.123 113.255 224.26 113.4 225.37 113.67L225.1 115.95C224.026 115.609 222.907 115.431 221.78 115.42C218.57 115.42 217.11 117.88 217.11 121.09C217.11 124.69 218.64 126.69 221.98 126.69C223.094 126.673 224.192 126.432 225.21 125.98ZM236.36 113.38L241.93 128.73H239.18L238 125.34H231.79L230.6 128.73H228.1L233.61 113.38H236.36ZM232.42 123.36H237.34L235.54 118.54C235.252 117.769 235.024 116.977 234.86 116.17C234.683 116.999 234.446 117.815 234.15 118.61L232.42 123.36ZM255.17 125.98L255.47 128.19C254.159 128.681 252.77 128.929 251.37 128.92C246.26 128.92 244.37 125.59 244.37 121.5C244.37 116.72 246.78 113.24 251.94 113.24C253.083 113.255 254.22 113.4 255.33 113.67L255.06 115.95C253.986 115.608 252.867 115.43 251.74 115.42C248.53 115.42 247.08 117.88 247.08 121.09C247.08 124.69 248.6 126.69 251.94 126.69C253.054 126.673 254.152 126.432 255.17 125.98ZM249.85 129.89H252.13C252.88 131.42 252.69 133.01 250.01 134.35L248.9 133.35C250.33 132.33 250.56 131.14 249.85 129.89ZM266.32 113.38L271.9 128.73H269.18L268 125.34H261.75L260.57 128.73H258.06L263.57 113.38H266.32ZM268.32 109.35L268.82 110.96C268.22 111.545 267.427 111.894 266.59 111.94C265.703 111.94 265.169 111.636 264.667 111.349C264.217 111.093 263.792 110.85 263.16 110.85C262.867 110.864 262.581 110.938 262.318 111.067C262.054 111.196 261.82 111.377 261.63 111.6L261.11 109.96C261.707 109.355 262.511 108.998 263.36 108.96C264.187 108.96 264.725 109.27 265.235 109.564C265.693 109.829 266.129 110.08 266.73 110.08C267.334 110.05 267.904 109.789 268.32 109.35ZM262.39 123.36H267.3L265.55 118.54C265.262 117.769 265.034 116.977 264.87 116.17H264.82C264.642 116.998 264.408 117.813 264.12 118.61L262.39 123.36ZM281.54 113.15C285.68 113.15 288.46 115.72 288.46 120.86C288.46 125.96 285.16 128.96 281.09 128.96C276.42 128.96 274.17 125.93 274.17 121.23C274.17 116.15 277.4 113.15 281.54 113.15ZM281.27 126.75C283.54 126.75 285.82 124.93 285.82 121.11C285.82 117.4 284.18 115.33 281.31 115.33C278.95 115.33 276.81 117.24 276.81 120.93C276.81 124.41 278.27 126.75 281.27 126.75Z" fill="white"/>
<path d="M327.13 26.77V26.56L341.32 21.27L338.48 13.52L321.71 19.61L327.81 2.84L320.07 0L314.78 14.21H314.57L309.32 0L301.52 2.84L307.61 19.61L290.84 13.52L288 21.27L302.22 26.56V26.77L288 32.07L290.84 39.82L307.61 33.73L301.52 50.5L309.32 53.34L314.62 39.13H314.83L320.12 53.34L327.88 50.5L321.78 33.73L338.55 39.82L341.32 32.07L327.11 26.77H327.13ZM314.67 31.14C313.786 31.14 312.922 30.8778 312.187 30.3867C311.452 29.8955 310.879 29.1974 310.54 28.3806C310.202 27.5638 310.113 26.665 310.286 25.7979C310.458 24.9309 310.884 24.1344 311.509 23.5092C312.134 22.8841 312.931 22.4584 313.798 22.2859C314.665 22.1134 315.564 22.2019 316.381 22.5403C317.197 22.8786 317.896 23.4515 318.387 24.1866C318.878 24.9217 319.14 25.7859 319.14 26.67C319.14 27.8555 318.669 28.9925 317.831 29.8308C316.992 30.6691 315.856 31.14 314.67 31.14Z" fill="#FCC100"/>
</g>
<defs>
<clipPath id="clip0_2887_12">
<rect width="341" height="133.8" fill="white"/>
</clipPath>
</defs>
</svg>
