<svg width="542" height="333" viewBox="0 0 542 333" fill="none" xmlns="http://www.w3.org/2000/svg">
<path d="M513.546 332.258C513.353 330.403 513.554 317.043 513.783 316.674C513.953 316.396 514.594 316.171 515.204 316.171C517.642 316.171 517.767 315.358 517.767 299.49C517.767 290.312 517.588 284.546 517.285 283.979C516.979 283.407 516.309 283.079 515.448 283.079C514.702 283.079 513.951 282.849 513.778 282.568C513.265 281.738 513.42 267.614 513.945 267.287C514.203 267.129 520.202 267.058 527.277 267.129L540.14 267.261V274.885V282.508L538.391 282.834C537.431 283.015 536.383 283.379 536.06 283.643C535.617 284.011 535.479 287.741 535.479 299.377C535.479 313.561 535.538 314.683 536.331 315.399C536.8 315.824 537.731 316.171 538.4 316.171C539.071 316.171 539.741 316.368 539.888 316.607C540.037 316.847 540.184 320.466 540.216 324.648L540.274 332.251L526.923 332.374C519.581 332.443 513.561 332.39 513.546 332.258Z" fill="black" stroke="black"/>
<path d="M20.2962 331.438C19.6698 330.86 17.1417 328.252 14.6789 325.64L10.1989 320.891V302.509C10.1989 288.364 10.0647 284.018 9.61725 283.657C9.29472 283.398 8.14255 283.04 7.05191 282.859C5.96313 282.68 5.05519 282.288 5.03468 281.992C4.93028 280.428 5.08316 267.534 5.20807 267.409C5.28824 267.327 10.7899 267.241 17.4326 267.219C28.4397 267.178 29.5639 267.247 30.1083 267.992C30.524 268.561 30.7067 270.709 30.7067 275.058V281.308L29.3085 282.615L27.9102 283.921V299.011C27.9102 317.002 27.6846 316.173 32.5711 316.173C37.4613 316.173 37.2319 317.023 37.2319 298.859C37.2319 298.859 37.2319 283.614 34.8773 281.761L35.0059 274.615L35.1346 267.467L46.9489 267.234C53.448 267.105 59.0056 267.15 59.3002 267.332C60.0422 267.791 60.3237 280.804 59.6209 282.115C59.2611 282.79 58.6458 283.081 57.5832 283.081C56.7461 283.081 55.8102 283.332 55.5025 283.64C55.0868 284.056 54.9432 288.881 54.9432 302.472V320.746L53.4219 322.538C52.5867 323.522 50.1369 326.164 47.9836 328.407L44.0648 332.486H32.7501C21.6665 332.486 21.413 332.463 20.2962 331.438Z" fill="black" stroke="black"/>
<path d="M294.978 327.266L290.084 322.065L289.851 316.994C289.722 314.206 289.733 311.598 289.875 311.199C290.095 310.58 291.284 310.474 297.886 310.48C302.15 310.483 305.862 310.625 306.134 310.793C306.408 310.963 306.63 311.775 306.63 312.599C306.63 313.423 306.956 314.566 307.355 315.135C307.985 316.035 308.502 316.172 311.291 316.172C315.443 316.172 315.951 315.558 315.951 310.564C315.951 305.088 316.216 305.235 306.318 305.127C301.747 305.077 297.75 305.025 297.435 305.01C296.779 304.982 290.369 298.419 289.517 296.903C289.129 296.214 288.946 293.055 288.935 286.851L288.918 277.803L294.204 272.518L299.489 267.232H311.279H323.068L327.475 271.543C329.899 273.914 332.168 276.403 332.518 277.072C333.176 278.333 333.189 285.689 332.535 286.748C332.315 287.103 329.813 287.274 324.837 287.274C316.964 287.274 316.815 287.231 316.242 284.841C315.812 283.035 314.44 282.483 310.938 282.705C307.344 282.934 306.63 283.614 306.63 286.808C306.63 290.658 306.615 290.652 316.673 290.568L325.486 290.496L329.574 294.739L333.663 298.982V309.98V320.976L328.42 326.369C325.536 329.338 322.965 331.923 322.71 332.117C322.454 332.311 317.21 332.47 311.058 332.47L299.871 332.468L294.978 327.266Z" fill="black" stroke="black"/>
<path d="M138.606 332.129C138.312 331.911 138.226 328.954 138.373 324.091L138.606 316.401L139.883 316.254C142.488 315.955 142.568 315.452 142.568 299.622C142.568 287.276 142.462 284.996 141.843 284.112C141.444 283.542 140.75 283.076 140.305 283.076C138.586 283.076 138.373 282.168 138.373 274.854C138.373 270.812 138.565 267.63 138.821 267.473C139.069 267.32 144.766 267.195 151.485 267.195C160.926 267.195 163.786 267.331 164.079 267.796C164.288 268.126 164.463 271.446 164.467 275.175C164.474 282.321 164.271 283.076 162.341 283.076C161.782 283.076 161.077 283.374 160.775 283.74C159.994 284.681 159.994 314.565 160.777 315.506C161.079 315.87 161.926 316.168 162.658 316.168C164.429 316.168 164.538 316.742 164.375 325.257L164.241 332.248L151.657 332.362C144.734 332.425 138.864 332.319 138.606 332.129Z" fill="black" stroke="black"/>
<path d="M242.836 328.044C236.363 321.272 236.568 321.662 236.568 316.172C236.568 313.554 236.782 311.259 237.051 310.99C237.578 310.465 252.182 310.288 253.01 310.798C253.276 310.964 253.496 311.775 253.496 312.599C253.496 313.423 253.822 314.566 254.221 315.135C254.861 316.047 255.361 316.172 258.39 316.172C262.814 316.172 263.284 315.627 263.284 310.509C263.284 307.161 263.198 306.85 262.026 305.927C260.84 304.995 260.297 304.943 252.538 305.03C248.011 305.081 244.061 304.971 243.759 304.784C243.459 304.598 241.645 302.655 239.732 300.464L236.251 296.484V287.144V277.803L241.536 272.518L246.822 267.232H258.383H269.943L274.785 271.996L279.625 276.759L279.495 281.901L279.364 287.041H271.715H264.065L263.519 285.41C262.764 283.158 261.364 282.522 257.719 282.777C254.162 283.025 253.496 283.659 253.496 286.808C253.496 290.496 253.451 290.479 263.618 290.634L272.576 290.77L275.206 293.333C276.655 294.743 278.445 296.715 279.185 297.714L280.529 299.532V310.215V320.896L275.052 326.653L269.576 332.41L258.329 332.447L247.081 332.485L242.836 328.044Z" fill="black" stroke="black"/>
<path d="M172.242 332.173C172.07 332.004 171.931 328.584 171.931 324.576C171.931 316.625 172.069 316.172 174.498 316.172C177.369 316.172 177.369 316.172 183.823 295.431C185.02 291.585 186.165 288.02 186.366 287.507C187.252 285.263 191.04 273.31 191.044 272.747C191.048 272.406 191.562 271.027 192.189 269.679L193.328 267.233H201.449C210.372 267.233 210.142 267.16 210.989 270.262C211.268 271.288 211.928 273.594 212.454 275.389C212.982 277.184 213.811 280.015 214.298 281.681C214.785 283.348 215.635 286.178 216.187 287.973C216.737 289.769 217.609 292.703 218.127 294.499C219.941 300.806 220.831 303.852 221.8 307.083C222.339 308.878 223.079 311.393 223.444 312.674C224.22 315.394 225.089 316.17 227.367 316.179C230.268 316.192 230.281 316.229 230.356 324.522C230.421 331.702 230.38 332.071 229.492 332.287C228.98 332.412 223.211 332.455 216.675 332.382L204.79 332.252L204.661 324.763L204.534 317.273L206.292 316.839C207.724 316.485 208.078 316.17 208.198 315.146C208.278 314.453 208.112 313.457 207.832 312.931C207.353 312.038 206.896 311.977 200.787 311.977H194.256L193.557 313.649C192.735 315.616 193.158 316.414 195.267 316.878C196.264 317.096 196.635 317.451 196.639 318.189C196.641 318.746 196.693 322.083 196.754 325.605C196.842 330.587 196.728 332.061 196.245 332.248C195.315 332.604 172.602 332.533 172.242 332.173ZM202.256 298.91C203.296 298.354 203.388 297.232 202.605 294.62C201.645 291.415 199.982 291.793 198.958 295.449C198.434 297.318 198.462 297.649 199.206 298.47C200.142 299.504 200.932 299.618 202.256 298.91Z" fill="black" stroke="black"/>
<path d="M401.684 332.137C401.507 329.922 401.723 316.997 401.941 316.642C402.102 316.381 402.713 316.169 403.298 316.169C403.884 316.169 404.712 315.785 405.135 315.317C405.819 314.56 405.907 312.783 405.907 299.671C405.907 290.366 405.728 284.546 405.424 283.977C405.118 283.405 404.449 283.077 403.587 283.077C402.844 283.077 402.098 282.857 401.93 282.588C401.479 281.856 401.684 268.059 402.156 267.489C402.433 267.155 406.72 267.071 415.538 267.23L428.512 267.463L428.64 274.624C428.782 282.51 428.62 283.077 426.217 283.077C425.404 283.077 424.485 283.328 424.177 283.636C423.765 284.048 423.618 288.198 423.618 299.41C423.618 316.98 423.411 316.169 427.893 316.169C431.534 316.169 431.937 315.589 432.106 310.095L432.241 305.682H439.931H447.621V318.965V332.249L424.666 332.37C412.042 332.437 401.699 332.331 401.684 332.137Z" fill="black" stroke="black"/>
<path d="M343.883 332.14C343.69 330.14 343.902 317.041 344.133 316.666C344.301 316.394 344.939 316.172 345.548 316.172C347.987 316.172 348.112 315.359 348.112 299.492C348.112 290.314 347.933 284.547 347.629 283.981C347.323 283.408 346.654 283.08 345.793 283.08C345.049 283.08 344.295 282.851 344.122 282.569C343.77 281.999 343.693 267.766 344.04 267.42C344.161 267.299 354.713 267.211 367.488 267.224C385.363 267.244 390.798 267.381 391.079 267.824C391.562 268.585 391.551 285.94 391.066 286.705C390.779 287.156 388.896 287.268 383.285 287.171L375.881 287.042L375.562 285.483C375.089 283.159 374.522 282.847 370.765 282.847C366.315 282.847 365.823 283.263 365.823 287.027C365.823 291.315 366.101 291.47 373.806 291.47C378.068 291.47 380.264 291.649 380.645 292.029C381.424 292.808 381.424 305.512 380.645 306.291C380.262 306.674 378.003 306.851 373.514 306.851C369.024 306.851 366.765 307.028 366.382 307.41C366.052 307.74 365.823 309.33 365.823 311.299C365.823 315.663 366.343 316.172 370.797 316.172C374.462 316.172 375.417 315.581 375.689 313.143L375.844 311.745H383.534H391.225V321.998V332.252L367.572 332.374C354.561 332.441 343.902 332.334 343.883 332.14Z" fill="black" stroke="black"/>
<path d="M469.891 331.911C469.633 331.582 469.277 330.686 469.1 329.918C468.737 328.342 465.78 318.772 463.481 311.74C462.644 309.177 461.281 304.877 460.455 302.185C459.627 299.493 458.781 296.872 458.572 296.359C458.363 295.847 457.418 292.962 456.473 289.948C454.493 283.643 453.438 282.338 450.68 282.785C448.011 283.219 447.854 282.798 447.862 275.212C447.865 271.463 448.041 268.126 448.249 267.796C448.542 267.331 451.413 267.195 460.905 267.195C470.396 267.195 473.267 267.331 473.56 267.796C473.77 268.126 473.944 271.452 473.948 275.188C473.955 281.836 473.931 282.004 472.79 283.076C471.393 284.388 471.358 285.033 472.504 288.277C472.987 289.646 473.843 292.34 474.404 294.262C475.821 299.107 476.164 299.855 476.962 299.855C478.178 299.855 478.769 298.317 481.77 287.345C481.77 287.345 482.578 284.388 479.876 282.231L479.938 274.895C479.969 270.859 480.077 267.475 480.176 267.376C480.277 267.277 485.861 267.195 492.585 267.195C501.163 267.195 505.009 267.358 505.464 267.736C506.348 268.469 506.415 281.903 505.541 282.444C505.224 282.64 504.034 282.832 502.897 282.869C500.376 282.955 499.599 283.781 498.466 287.576C498.018 289.075 496.849 292.921 495.868 296.126C494.888 299.331 493.519 303.839 492.828 306.147C492.134 308.455 491.293 311.181 490.96 312.206C490.626 313.232 489.912 315.538 489.375 317.333C487.494 323.596 486.55 326.675 485.657 329.451L484.759 332.248L477.559 332.377C472.154 332.472 470.243 332.356 469.891 331.911Z" fill="black" stroke="black"/>
<path d="M69.7794 332.024C69.6955 331.773 69.7291 328.163 69.8577 324.004L70.0908 316.438L71.53 316.146C72.3205 315.983 73.2135 315.702 73.51 315.517C74.2967 315.031 74.28 284.424 73.4932 283.637C73.1856 283.329 72.369 283.078 71.6792 283.078C70.9633 283.078 70.3014 282.761 70.1411 282.341C69.6657 281.101 69.8204 267.775 70.3145 267.471C70.5643 267.316 75.4247 267.19 81.1165 267.193C88.9244 267.195 91.6109 267.344 92.0621 267.797C92.3921 268.127 93.4771 269.969 94.4746 271.892C95.4701 273.814 97.4034 277.485 98.7663 280.048C100.131 282.612 102.15 286.491 103.254 288.671C104.357 290.85 105.765 293.255 106.382 294.018C107.35 295.215 107.603 295.317 108.256 294.775C108.864 294.271 109.009 293.19 109.009 289.168C109.009 283.434 108.657 282.634 105.942 282.194L104.115 281.898V274.681V267.464H115.767H127.419L127.652 274.455C127.859 280.684 127.796 281.536 127.071 282.261C126.621 282.71 125.846 283.078 125.348 283.078C124.85 283.078 124.11 283.549 123.704 284.125C123.051 285.052 122.971 287.936 123.012 308.712L123.059 332.25L116.151 332.384C108.392 332.533 107.145 332.365 107.145 331.168C107.145 330.712 106.96 330.139 106.736 329.897C106.511 329.653 105.278 327.46 103.998 325.025C102.719 322.591 100.668 318.711 99.4449 316.403C98.22 314.095 95.9399 309.719 94.3739 306.677C92.8116 303.634 91.238 301.031 90.8801 300.891C89.439 300.33 88.9673 302.197 88.9673 308.464C88.9673 315.542 89.3737 316.636 91.995 316.636C92.8638 316.636 93.6952 316.832 93.8425 317.072C93.9917 317.313 94.1613 320.771 94.2191 324.759C94.3049 330.441 94.193 332.06 93.7064 332.246C92.5114 332.703 69.9398 332.494 69.7794 332.024Z" fill="black" stroke="black"/>
<path d="M257.608 228.529C257.114 227.437 256.702 226.333 256.698 226.074C256.674 224.961 249.47 207.88 248.051 205.57C247.736 205.057 246.854 203.484 246.092 202.074C245.329 200.665 244.306 198.847 243.821 198.038C243.334 197.227 242.229 195.35 241.366 193.866C239.175 190.103 232.726 181.296 228.955 176.913C220.328 166.889 206.717 155.397 197.261 150.156C196.493 149.729 195.128 148.933 194.231 148.385C192.188 147.138 184.68 143.336 182.812 142.604C182.044 142.303 180.051 141.5 178.384 140.818C169.715 137.275 160.278 134.751 148.322 132.775C140.929 131.554 117.614 131.552 109.869 132.773C86.0338 136.53 65.9697 144.373 46.4444 157.567C31.9417 167.37 16.5179 182.256 7.43297 195.225C6.42063 196.67 5.46049 197.717 5.29643 197.555C5.13423 197.391 5 187.158 5 174.812V152.367L11.4096 146.088C14.9332 142.635 20.0621 138.025 22.8045 135.84C27.2267 132.32 35.6014 126.363 38.0791 124.974C38.575 124.697 40.8253 123.399 43.0811 122.092C47.013 119.808 58.6783 113.984 59.3177 113.984C59.4855 113.984 60.2853 113.678 61.0926 113.305C63.5647 112.164 67.4537 110.712 72.5826 109.015C83.4964 105.404 92.9188 103.342 107.772 101.318C113.216 100.576 140.415 100.576 145.525 101.318C161.046 103.572 165.712 104.545 178.151 108.122C183.381 109.627 191.103 112.573 197.494 115.502C204.237 118.591 212.724 123.009 215.205 124.723C215.846 125.164 218.257 126.757 220.565 128.257C237.277 139.138 252.373 154.222 263.704 171.363C265.294 173.772 267.01 176.339 267.517 177.07C268.022 177.801 270.108 181.68 272.153 185.692C274.197 189.703 276.152 193.276 276.495 193.633C277.252 194.414 278.515 194.017 278.882 192.879C282.422 181.967 291.556 162.231 297.371 152.932C305.438 140.033 307.248 137.43 314.373 128.461C325.971 113.865 342.154 99.1885 357.606 89.2553C367.612 82.8233 376.229 78.1717 386.026 73.9136C386.538 73.6917 388.19 72.9683 389.695 72.3065C391.199 71.6447 392.637 71.104 392.887 71.104C393.138 71.104 394.003 70.802 394.811 70.4347C397.203 69.3422 405.547 66.6986 413.059 64.6496C433.416 59.1013 459.172 57.155 481.7 59.4612C486.758 59.9794 492.407 60.714 494.255 61.0925C496.102 61.4728 498.056 61.7823 498.597 61.7823C499.688 61.7823 505.452 63.0836 513.267 65.0915C520.626 66.9838 523.734 67.9216 530.047 70.1588C533.123 71.2494 536.658 72.4948 537.899 72.9292C539.145 73.3617 540.382 74.1131 540.655 74.5978C541.141 75.4684 540.815 106.4 540.313 106.901C540.19 107.024 539.823 106.912 539.495 106.65C538.076 105.512 525.44 100.285 518.585 97.9972C499.671 91.6864 483.721 89.0763 464.095 89.0763C445.064 89.0763 428.986 91.6305 410.961 97.5181C409.039 98.1463 406.804 98.9629 405.997 99.3321C405.189 99.6993 404.324 100.001 404.073 100.001C403.823 100.001 402.49 100.503 401.114 101.114C399.736 101.726 397.674 102.619 396.531 103.096C390.739 105.514 377.595 112.722 371.575 116.78C358.831 125.373 346.341 136.925 336.296 149.407C332.642 153.946 326.29 163.408 322.949 169.282C320.186 174.143 314.452 185.894 313.316 189.024C308.585 202.063 305.538 212.49 303.991 220.951C303.614 223.002 303.042 225.938 302.719 227.476L302.13 230.273L280.321 230.394L258.51 230.515L257.608 228.529Z" fill="black" stroke="black"/>
<path d="M270.759 144.101C264.476 135.352 253.445 124.035 242.471 115.081C239.166 112.385 231.2 106.807 225.442 103.16C221.117 100.422 208.378 93.7361 203.272 91.5268C196.388 88.5476 193.238 87.3638 186.308 85.1526C173.17 80.9616 163.792 78.894 148.788 76.8824C141.418 75.8943 119.395 75.4767 112.2 76.1889C98.8291 77.5125 94.0415 78.2396 83.7689 80.5011C77.7974 81.8173 68.6137 84.4908 64.5736 86.0885C63.3711 86.5621 62.1145 86.9592 61.7771 86.9667C61.4396 86.976 60.3248 87.388 59.2994 87.8839C58.274 88.3798 57.2094 88.7918 56.9335 88.8012C55.4663 88.8459 34.979 98.8369 31.996 100.96C31.2969 101.458 30.6108 101.867 30.4729 101.867C30.3349 101.867 27.3258 103.809 23.7873 106.184C17.2975 110.538 7.41462 118.189 6.72482 119.393C6.51974 119.751 6.0462 120.044 5.67146 120.044C5.08233 120.044 5.00589 117.398 5.11216 100.599C5.22961 81.6868 5.25944 81.1387 6.16551 80.6726C6.67821 80.4097 8.25172 79.4328 9.66116 78.5044C15.3456 74.757 28.5321 67.6427 35.0629 64.8014C36.0883 64.354 37.7662 63.612 38.7916 63.1478C42.3226 61.5537 51.169 58.0544 51.6686 58.0544C51.9427 58.0544 52.8282 57.7412 53.6355 57.359C54.4428 56.9749 56.1542 56.3615 57.435 55.9943C58.7158 55.6288 61.2346 54.885 63.0281 54.3425C66.1005 53.414 72.6984 51.71 81.2204 49.6406C83.2786 49.1409 85.4375 48.7326 86.0173 48.7326C86.5971 48.7326 88.5827 48.425 90.4302 48.0484C92.2778 47.6718 97.6695 46.8981 102.412 46.3276C115.094 44.8007 137.468 44.7989 150.419 46.3239C155.418 46.913 160.243 47.5749 161.139 47.7967C162.036 48.0167 164.344 48.425 166.266 48.7009C168.188 48.975 171.02 49.5063 172.558 49.8792C174.097 50.2521 177.661 51.1097 180.482 51.7864C186.459 53.2201 187.494 53.5333 196.795 56.7064C205.617 59.7155 207.291 60.3084 208.447 60.8341C208.96 61.0671 211.896 62.3479 214.972 63.681C224.945 68.0044 234.87 73.3774 244.103 79.4515C246.282 80.8851 248.301 82.1622 248.592 82.2909C249.429 82.6619 256.353 87.7888 261.335 91.7282C263.846 93.7156 266.326 95.3413 266.846 95.3413C267.463 95.3413 268.884 94.0083 270.946 91.497C286.841 72.1246 307.826 53.2052 327.765 40.2666C334.689 35.7736 337.784 33.8179 337.969 33.8179C338.058 33.8179 340.204 32.6415 342.736 31.2059C355.1 24.1885 370.146 17.5458 383.696 13.1218C386.515 12.2008 389.872 11.0989 391.153 10.6757C392.434 10.2507 394.218 9.74728 395.115 9.55712C396.011 9.36695 399.159 8.58952 402.106 7.82514C411.693 5.34556 424.678 3.11581 439.859 1.33908C445.46 0.682835 450.54 0.494527 462.464 0.50012C477.797 0.505713 478.531 0.554193 494.857 2.61057C506.263 4.04798 519.288 6.47536 527.357 8.66597C529.21 9.16934 531.05 9.58136 531.447 9.58136C531.844 9.58136 533.36 10.0008 534.82 10.5135C536.277 11.0262 538.03 11.4457 538.712 11.4457C541.149 11.4457 541.153 11.4718 540.864 30.147C540.716 39.6514 540.493 47.532 540.368 47.6569C540.243 47.7818 537.555 47.0268 534.394 45.9771C524.372 42.653 523.214 42.3156 515.365 40.4363C507.567 38.5682 499.339 36.9891 492.993 36.1427C491.071 35.8873 487.819 35.4268 485.769 35.1229C483.367 34.7649 475.233 34.5636 462.93 34.5561C442.87 34.545 438.724 34.8582 425.41 37.3844C423.231 37.7982 420.399 38.3016 419.118 38.503C410.841 39.808 388.105 46.8832 379.43 50.8561C378.623 51.2271 377.821 51.5291 377.65 51.5291C377.478 51.5291 373.839 53.2388 369.562 55.3268C363.076 58.4962 359.03 60.6943 349.53 66.2109C343.28 69.8408 332.225 77.9861 322.763 85.9301C306.844 99.3012 288.396 120.991 278.533 137.938C277.67 139.424 276.486 141.406 275.905 142.343C275.323 143.281 274.646 144.519 274.402 145.097C273.71 146.721 272.377 146.355 270.759 144.101Z" fill="black" stroke="black"/>
</svg>
