<?xml version="1.0" encoding="UTF-8" standalone="no"?><!DOCTYPE svg PUBLIC "-//W3C//DTD SVG 1.1//EN" "http://www.w3.org/Graphics/SVG/1.1/DTD/svg11.dtd"><svg width="100%" height="100%" viewBox="0 0 8075 4848" version="1.1" xmlns="http://www.w3.org/2000/svg" xmlns:xlink="http://www.w3.org/1999/xlink" xml:space="preserve" xmlns:serif="http://www.serif.com/" style="fill-rule:evenodd;clip-rule:evenodd;stroke-linejoin:round;stroke-miterlimit:2;"><rect id="Página-1" serif:id="Página 1" x="-1574.848" y="-1625.909" width="11220.458" height="8267.708" style="fill:none;"/><g id="Camada-1" serif:id="Camada 1"><path d="M8070.363,3847.863l0,259.492l-66.996,0l0,475.992l66.996,0l0,264.408l-423.046,0l0,-264.408l67.113,0l0,-475.992l-67.113,0l0,-259.492l423.046,0Z" style="fill:#1c1c1c;fill-rule:nonzero;"/><path d="M7560.737,3847.863l0,259.492l-95.821,0l-226.158,740.4l-240.025,0l-235.679,-740.4l-101.188,0l0,-259.492l410.471,0l0,259.492l-35.5,0l77.208,255.175l76.613,-255.175l-32.042,0l0,-259.492l402.121,0Z" style="fill:#1c1c1c;fill-rule:nonzero;"/><path d="M6397.754,3847.863l0,259.492l-76.946,0l0,475.992l105.671,0l0,-158.592l259.637,0l0,423l-721.05,0l0,-264.408l67.379,0l0,-475.992l-67.379,0l0,-259.492l432.688,0Z" style="fill:#1c1c1c;fill-rule:nonzero;"/><path d="M5835.302,3847.863l0,298.354l-259.637,0l0,-46.783l-124.829,0l0,113.854l230.767,0l0,254.771l-230.767,0l0,123.208l124.829,0l0,-51.529l259.637,0l0,308.017l-740.229,0l0,-264.408l67.521,0l0,-475.992l-67.521,0l0,-259.492l740.229,0Z" style="fill:#1c1c1c;fill-rule:nonzero;"/><path d="M4965.582,4333.383l0,341.471l-173.312,172.883l-350.733,0l-158.779,-168.108l0,-182.858l278.721,0l0,86.562l115.312,0l0,-139.387l-273.783,0l-129.746,-139.146l0,-288.792l168.275,-168.113l360.396,0l154.104,158.738l0,139.596l-269.442,0l0,-62.608l-125.117,0l0,120.017l278.988,0l125.117,129.746Z" style="fill:#1c1c1c;fill-rule:nonzero;"/><path d="M4167.616,4333.383l0,341.471l-173.05,172.883l-345.958,0l-163.675,-168.108l0,-182.858l278.842,0l0,86.562l120.083,0l0,-139.387l-278.817,0l-124.713,-139.146l0,-288.792l168.279,-168.113l355.358,0l153.963,158.738l0,139.596l-269.3,0l0,-62.608l-124.854,0l0,120.017l278.7,0l125.142,129.746Z" style="fill:#1c1c1c;fill-rule:nonzero;"/><path d="M2903.524,4328.447l57.529,-192.621l52.642,192.621l-110.171,0Zm418.183,254.917l-216.375,-735.504l-274.192,0l-235.371,735.504l-81.717,0l0,264.383l394.154,0l0,-250.113l-62.488,0l19.467,-57.596l187.225,0l14.388,57.596l-62.488,0l0,250.113l408.729,0l0,-264.383l-91.333,0Z" style="fill:#1c1c1c;fill-rule:nonzero;"/><path d="M2422.836,3847.863l0,259.492l-67.521,0l0,475.992l67.521,0l0,264.408l-418.229,0l0,-264.408l62.608,0l0,-475.992l-62.608,0l0,-259.492l418.229,0Z" style="fill:#1c1c1c;fill-rule:nonzero;"/><path d="M1869.92,3847.863l0,259.492l-67.404,0l0,740.4l-249.804,0l-264.288,-500.067l0,245.179l61.05,0l0,254.887l-373.65,0l0,-264.408l67.375,0l0,-475.992l-67.375,0l0,-259.492l351.012,0l235.538,447.146l0,-197.317l-56.183,0l0,-249.829l363.729,0Z" style="fill:#1c1c1c;fill-rule:nonzero;"/><path d="M850.839,3847.863l0,259.492l-76.804,0l0,567.492l-168.279,172.908l-355.617,0l-167.85,-172.908l0,-567.492l-77.329,0l0,-259.492l395.846,0l0,249.829l-30.421,0l0,485.654l115.288,0l0,-485.654l-25.717,0l0,-249.829l390.883,0Z" style="fill:#1c1c1c;fill-rule:nonzero;"/><path d="M8074.938,177.089l-4.917,562.312c-1571.433,-581.708 -3253.721,62.488 -4027.879,1494.946c-922.679,-1283.221 -2893.613,-1437.017 -4042.142,-398.929l0,-615.133c1177.421,-788.283 2811.75,-745.292 3945.896,216.329c1071.896,-1341.408 2653.279,-1696.887 4129.042,-1259.525" style="fill:#1c1c1c;fill-rule:nonzero;"/><path d="M8074.938,1109.443l-4.917,519.129c-1432,-725.821 -3321.1,4.912 -3580.779,1850.562l-681.3,0c-420.113,-1326.854 -1693.738,-1757.179 -2739.387,-1348.783c-418.442,163.438 -783.321,446.504 -1068.554,862.221l0,-703.079c1118.179,-1240.554 3369.317,-1011.508 4104.629,641.646c619.908,-1811.888 2417.792,-2460.975 3970.308,-1821.696" style="fill:#1c1c1c;fill-rule:nonzero;"/></g></svg>