<?xml version="1.0" encoding="UTF-8" standalone="no"?><!DOCTYPE svg PUBLIC "-//W3C//DTD SVG 1.1//EN" "http://www.w3.org/Graphics/SVG/1.1/DTD/svg11.dtd"><svg width="100%" height="100%" viewBox="0 0 9251 974" version="1.1" xmlns="http://www.w3.org/2000/svg" xmlns:xlink="http://www.w3.org/1999/xlink" xml:space="preserve" xmlns:serif="http://www.serif.com/" style="fill-rule:evenodd;clip-rule:evenodd;stroke-linejoin:round;stroke-miterlimit:2;"><rect id="Página-1" serif:id="Página 1" x="-986.825" y="-3652.538" width="11220.458" height="8267.708" style="fill:none;"/><g id="Camada-1" serif:id="Camada 1"><path d="M2260.483,49.571l-1.363,157.412c-439.929,-162.837 -910.846,17.488 -1127.567,418.5c-258.312,-359.242 -810.046,-402.275 -1131.554,-111.679l0,-172.2c329.608,-220.683 787.104,-208.646 1104.6,60.571c300.083,-375.521 742.758,-475.033 1155.883,-352.604" style="fill:#1c1c1c;fill-rule:nonzero;"/><path d="M2260.483,310.574l-1.363,145.321c-400.883,-203.192 -929.725,1.363 -1002.412,518.042l-190.725,-0c-117.608,-371.433 -474.15,-491.896 -766.862,-377.567c-117.129,45.758 -219.267,124.979 -299.121,241.379l0,-196.833c313.004,-347.275 943.2,-283.171 1149.046,179.621c173.537,-507.213 676.838,-688.925 1111.438,-509.963" style="fill:#1c1c1c;fill-rule:nonzero;"/><path d="M8900.212,145.617l0,214.979l55.6,0l0,394.321l-55.6,0l0,219.017l350.458,0l0,-219.017l-55.5,0l0,-394.321l55.5,0l0,-214.979l-350.458,0Z" style="fill:#1c1c1c;fill-rule:nonzero;"/><path d="M8495.374,145.617l0,214.979l26.525,0l-63.45,211.396l-63.979,-211.396l29.429,0l0,-214.979l-340.033,0l0,214.979l83.817,0l195.242,613.337l198.854,0l187.342,-613.337l79.371,0l0,-214.979l-333.117,0Z" style="fill:#1c1c1c;fill-rule:nonzero;"/><path d="M7506.617,145.617l0,214.979l55.829,0l0,394.321l-55.829,0l0,219.017l597.312,0l0,-350.404l-215.079,0l0,131.388l-87.525,0l0,-394.321l63.75,0l0,-214.979l-358.458,0Z" style="fill:#1c1c1c;fill-rule:nonzero;"/><path d="M6785.913,145.617l0,214.979l55.929,0l0,394.321l-55.929,0l0,219.017l613.212,0l0,-255.158l-215.104,0l0,42.704l-103.375,0l0,-102.088l191.154,0l0,-211.042l-191.154,0l0,-94.342l103.375,0l0,38.767l215.104,0l0,-247.158l-613.212,0Z" style="fill:#1c1c1c;fill-rule:nonzero;"/><path d="M6244.516,145.64l-139.392,139.292l0,239.229l107.492,115.263l226.787,0l0,115.467l-95.525,0l0,-71.725l-230.904,0l0,151.504l131.542,139.237l290.542,0l143.579,-143.2l0,-282.871l-103.65,-107.487l-231.108,0l0,-99.442l103.629,0l0,51.892l223.229,0l0,-115.642l-127.654,-131.517l-298.567,0Z" style="fill:#1c1c1c;fill-rule:nonzero;"/><path d="M5587.638,145.64l-139.392,139.292l0,239.229l103.3,115.263l230.979,0l0,115.467l-99.488,0l0,-71.725l-230.979,0l0,151.504l135.579,139.237l286.579,0l143.379,-143.2l0,-282.871l-103.679,-107.487l-230.879,0l0,-99.442l103.45,0l0,51.892l223.058,0l0,-115.642l-127.529,-131.517l-294.379,0Z" style="fill:#1c1c1c;fill-rule:nonzero;"/><path d="M4910.432,145.617l-194.992,609.325l-67.688,0l0,218.992l326.533,0l0,-207.179l-51.767,0l16.129,-47.725l155.088,0l11.912,47.725l-51.762,0l0,207.179l338.621,0l0,-218.992l-75.667,0l-179.263,-609.325l-227.146,0Zm107.642,238.575l43.588,159.558l-91.263,0l47.675,-159.558Z" style="fill:#1c1c1c;fill-rule:nonzero;"/><path d="M4225.73,145.617l0,214.979l51.867,0l0,394.321l-51.867,0l0,219.017l346.471,0l0,-219.017l-55.929,0l0,-394.321l55.929,0l0,-214.979l-346.471,0Z" style="fill:#1c1c1c;fill-rule:nonzero;"/><path d="M3812.829,145.617l0,206.979l46.567,0l0,163.442l-195.142,-370.421l-290.771,0l0,214.979l55.8,0l0,394.321l-55.8,0l0,219.017l309.521,0l0,-211.142l-50.579,0l0,-203.117l218.942,414.258l206.954,0l0,-613.337l55.829,0l0,-214.979l-301.321,0Z" style="fill:#1c1c1c;fill-rule:nonzero;"/><path d="M2946.116,145.617l0,206.979l21.325,0l0,402.321l-95.5,0l0,-402.321l25.188,0l0,-206.979l-327.946,0l0,214.979l64.079,0l0,470.113l139.037,143.225l294.608,0l139.388,-143.225l0,-470.113l63.625,0l0,-214.979l-323.804,0Z" style="fill:#1c1c1c;fill-rule:nonzero;"/></g></svg>