<?xml version="1.0" encoding="UTF-8" standalone="no"?><!DOCTYPE svg PUBLIC "-//W3C//DTD SVG 1.1//EN" "http://www.w3.org/Graphics/SVG/1.1/DTD/svg11.dtd"><svg width="100%" height="100%" viewBox="0 0 2327 1913" version="1.1" xmlns="http://www.w3.org/2000/svg" xmlns:xlink="http://www.w3.org/1999/xlink" xml:space="preserve" xmlns:serif="http://www.serif.com/" style="fill-rule:evenodd;clip-rule:evenodd;stroke-linejoin:round;stroke-miterlimit:2;"><rect id="Página-2" serif:id="Página 2" x="-2865.513" y="-662.441" width="8000" height="4500" style="fill:none;"/><g id="Camada-1" serif:id="Camada 1"><path d="M1855.243,1236.14c-146.517,209.467 -367.079,335.287 -603.683,378.062c158.658,14.096 317.521,-11.946 474.067,-78.667c59.508,-25.362 112.713,-53.408 160.492,-83.8c127.267,-89.013 234.067,-211.013 308.792,-358.079c126.529,-294.587 86.867,-663.787 83.696,-1026.812c-0.096,-9.533 4.375,-64.15 -52.583,-66.004l5.242,-0.075l-196.754,0c-44.946,0 -67.138,21.129 -67.138,66.079l0,645.829c0,157.175 6.583,353.75 -112.129,523.467" style="fill:#002859;"/><path d="M449.189,762.947c0.046,3.533 -0.121,6.987 0,10.554c0,0.304 0.046,0.617 0.046,0.929c0,0.692 -0.021,1.362 0,2.071c0.188,7.029 0.837,13.896 1.246,20.854c0.312,5.096 0.479,10.213 0.912,15.279c7.683,99.404 34.788,190.617 76.975,271.421c2.767,5.442 5.675,10.8 8.604,16.154c1.604,2.904 3.117,5.833 4.775,8.696c128.946,230.55 378.446,383.338 660.717,375.1c292.8,-8.567 540.362,-187.913 650.138,-439.717c-8.492,11.787 -17.379,23.1 -26.513,34.125c-2.492,3 -5.079,5.875 -7.633,8.825c-7.004,8.146 -14.163,16.146 -21.508,23.846c-2.587,2.721 -5.229,5.429 -7.862,8.092c-8.138,8.196 -16.392,16.121 -24.837,23.779c-1.871,1.7 -3.746,3.45 -5.621,5.133c-32.321,28.529 -67.079,53.229 -103.683,74.217c-7.733,4.421 -15.6,8.433 -23.433,12.483c-5.867,3.054 -11.575,6.292 -17.487,9.154c-13.542,6.508 -27.225,12.579 -41.158,18.154c-5.033,2.017 -10.225,3.671 -15.363,5.588c-9.354,3.483 -18.771,7.012 -28.283,10.083c-6.046,1.946 -12.15,3.583 -18.25,5.362c-8.729,2.562 -17.525,5.137 -26.408,7.342c-6.337,1.588 -12.725,2.933 -19.071,4.325c-8.792,1.942 -17.571,3.817 -26.404,5.425c-6.392,1.154 -12.829,2.142 -19.258,3.121c-8.979,1.375 -17.967,2.617 -26.996,3.65c-6.283,0.725 -12.671,1.35 -19.013,1.9c-9.213,0.808 -18.492,1.417 -27.758,1.871c-6.146,0.317 -12.342,0.604 -18.483,0.742c-9.658,0.25 -19.304,0.196 -28.913,0.05c-255.9,-3.929 -510.346,-140.729 -619.737,-397.167c-23.962,-56.183 -40.171,-115.683 -48.504,-176.267c-2.108,-15.413 -3.7,-30.921 -4.775,-46.458c-0.246,-3.454 -0.333,-6.938 -0.529,-10.421c-0.7,-12.562 -1.038,-25.117 -1.038,-37.696c0,-4.133 0,-8.283 0.05,-12.442c0.288,-15.675 0.933,-31.358 2.304,-46.962c0.025,-0.267 0.054,-0.508 0.096,-0.771c1.346,-15.275 3.358,-30.442 5.763,-45.571c0.65,-4.204 1.392,-8.383 2.167,-12.562c2.2,-12.462 4.746,-24.821 7.679,-37.117c0.771,-3.217 1.417,-6.433 2.233,-9.633c3.817,-15.004 8.183,-29.846 13.063,-44.533c1.104,-3.317 2.379,-6.583 3.533,-9.875c4.121,-11.738 8.638,-23.338 13.45,-34.817c1.696,-4.004 3.35,-8.017 5.154,-12c6.358,-14.288 13.087,-28.412 20.579,-42.187c51.087,-94.008 126.612,-171.013 228.204,-222.733c64.008,-32.629 138.017,-56.663 223.138,-67.108c3.067,-0.379 6.408,-0.746 9.942,-1.129c1.533,-0.142 3.233,-0.287 4.862,-0.462c2.096,-0.183 4.112,-0.4 6.321,-0.592c2.729,-0.242 5.65,-0.458 8.529,-0.671c1.254,-0.096 2.408,-0.217 3.658,-0.317c3.408,-0.242 6.912,-0.475 10.479,-0.692c0.9,-0.079 1.758,-0.121 2.721,-0.2c3.513,-0.212 7.113,-0.4 10.763,-0.596c1.067,-0.046 2.158,-0.117 3.263,-0.167c3.321,-0.167 6.721,-0.317 10.133,-0.458c1.538,-0.071 3.029,-0.142 4.575,-0.192c3.012,-0.117 6.096,-0.217 9.2,-0.312c1.979,-0.042 3.938,-0.121 5.917,-0.171c2.883,-0.092 5.8,-0.137 8.738,-0.192c2.163,-0.021 4.317,-0.087 6.492,-0.121c2.825,-0.021 5.662,-0.021 8.487,-0.042c2.258,-0.025 4.571,-0.025 6.829,-0.025c2.683,0 5.325,0.025 8.012,0.067c2.354,0.033 4.763,0.033 7.113,0.075c2.487,0.046 4.946,0.117 7.438,0.192c2.504,0.071 5,0.117 7.446,0.217c2.304,0.096 4.563,0.196 6.871,0.312c2.442,0.121 4.942,0.217 7.35,0.362c2.258,0.146 4.408,0.308 6.567,0.454c2.354,0.167 4.663,0.337 6.929,0.529c2.058,0.188 4.079,0.404 6.042,0.6c2.254,0.238 4.517,0.458 6.633,0.717c1.867,0.246 3.646,0.504 5.429,0.75c2.062,0.287 4.125,0.592 6.088,0.912c1.738,0.288 3.321,0.596 4.95,0.933c2.4,0.458 4.808,0.908 6.963,1.442c-1.246,-0.329 -2.55,-0.533 -3.8,-0.871c0.208,0.054 0.438,0.079 0.633,0.129c-456.342,-118.208 -904.683,219.171 -913.875,690.7c-0.2,8.792 -0.096,17.65 0,26.529" style="fill:#002859;"/><path d="M1153.673,51.908c-173.454,27.371 -313.008,112.425 -401.317,243.475c-63.587,94.367 -100.604,212.617 -101.283,338.508c21.75,-77.046 58.342,-149.9 110.067,-213.054c170.812,-208.433 481.433,-274.588 708.196,-119.529c52.3,35.783 92.45,77.367 125.342,120.158l246.4,0c-3.358,-6.725 -7.583,-14.117 -12.675,-22.325c-10.367,-16.908 -35.679,-60.008 -55.325,-75.162c-97.912,-134.171 -240.162,-233.483 -404.542,-276.921c-0.042,0 -0.146,0 -0.196,-0.021l-0.088,-0.025l-0.725,-0.096l0.525,0.096c-64.204,-9.367 -151.075,-5.092 -214.379,4.896" style="fill:#002859;"/><path d="M1624.495,1039.462c-45.429,84.183 -113.763,175.783 -238.625,235.475c172.029,-20.333 340.771,-99.425 465.25,-231.871c-0.1,0.192 -0.242,0.383 -0.388,0.575l3.742,-4.029c0.05,-0.05 0.108,-0.1 0.142,-0.15l0.096,-0.092l1.583,-3.658c-0.867,1.275 -1.771,2.504 -2.633,3.75l-229.167,0Z" style="fill:#002859;"/><path d="M1207.278,410.975c-183.075,0 -331.487,148.408 -331.487,331.496c0,183.092 148.412,331.496 331.487,331.496c183.104,0 331.504,-148.404 331.504,-331.496c0,-183.087 -148.4,-331.496 -331.504,-331.496" style="fill:#002859;"/><path d="M610.058,1773.887c143.254,79.363 307.704,128.321 487.763,137.133c12.196,0.646 24.496,0.842 36.792,1.104c7.412,0.142 14.662,0.671 22.108,0.671c0.721,0 1.425,-0.046 2.133,-0.046c0.896,0 1.737,0.071 2.621,0.071c517.429,0 934.788,-328.425 1096.679,-764.971c33.95,-91.533 51.625,-183.733 60.604,-279.104c1.538,-14.792 2.646,-29.725 3.65,-44.688c0.05,-0.913 0.137,-1.8 0.192,-2.688c0.762,-11.596 1.342,-23.246 1.733,-34.938c1.238,-25.954 2.1,-52.054 2.492,-78.608c-0.583,7.517 -1.254,14.979 -1.925,22.45c-0.717,8.279 -1.538,16.542 -2.354,24.804c-0.329,3 -0.625,6 -0.954,9c-0.825,8.046 -1.737,16.042 -2.692,24.033c-0.388,3.121 -0.767,6.271 -1.15,9.392c-1.017,7.804 -2.029,15.583 -3.117,23.338c-0.492,3.312 -0.921,6.6 -1.412,9.896c-1.088,7.538 -2.296,15.054 -3.492,22.55c-0.525,3.429 -1.108,6.883 -1.687,10.321c-1.238,7.321 -2.538,14.596 -3.879,21.871c-0.675,3.558 -1.354,7.092 -2.021,10.617c-1.396,7.125 -2.838,14.237 -4.321,21.292c-0.725,3.608 -1.542,7.212 -2.308,10.788c-1.537,6.954 -3.125,13.875 -4.75,20.787c-0.871,3.679 -1.779,7.35 -2.692,11.025c-1.683,6.721 -3.363,13.421 -5.188,20.075c-1.008,3.813 -2.067,7.6 -3.117,11.383c-1.837,6.525 -3.662,13.008 -5.575,19.471c-1.212,3.842 -2.354,7.679 -3.55,11.521c-1.967,6.312 -3.992,12.604 -6.1,18.875c-1.3,3.913 -2.638,7.829 -3.992,11.717c-2.158,6.121 -4.317,12.242 -6.537,18.342c-1.483,3.942 -2.971,7.854 -4.504,11.788c-2.308,5.958 -4.617,11.917 -7.058,17.817c-1.588,3.992 -3.321,7.929 -4.992,11.862c-2.45,5.788 -4.95,11.579 -7.492,17.321c-1.821,3.983 -3.708,7.942 -5.583,11.908c-2.637,5.617 -5.271,11.258 -8.058,16.825c-1.975,3.992 -4.033,7.921 -6.1,11.888c-2.783,5.467 -5.613,10.921 -8.546,16.329c-2.221,4.008 -4.463,7.996 -6.725,11.954c-3.025,5.288 -6,10.563 -9.125,15.8c-2.404,4.004 -4.9,7.996 -7.396,11.958c-3.162,5.112 -6.288,10.229 -9.604,15.271c-2.642,4.008 -5.329,7.971 -8.071,11.954c-3.367,4.954 -6.675,9.9 -10.171,14.792c-2.833,3.992 -5.812,7.904 -8.75,11.867c-3.546,4.775 -7.054,9.579 -10.746,14.312c-3.079,3.958 -6.3,7.871 -9.467,11.808c-3.746,4.608 -7.442,9.246 -11.337,13.833c-3.312,3.912 -6.771,7.779 -10.225,11.671c-3.942,4.467 -7.833,8.95 -11.908,13.396c-3.608,3.867 -7.346,7.708 -11,11.55c-4.171,4.296 -8.267,8.646 -12.542,12.892c-3.837,3.871 -7.917,7.662 -11.904,11.479c-4.321,4.154 -8.592,8.312 -13.012,12.387c-4.225,3.842 -8.592,7.608 -12.912,11.433c-4.475,3.933 -8.892,7.896 -13.508,11.792c-4.546,3.838 -9.304,7.588 -13.971,11.358c-4.654,3.767 -9.163,7.529 -13.967,11.225c-4.896,3.8 -9.987,7.521 -15.025,11.242c-4.817,3.579 -9.512,7.213 -14.463,10.704c-5.279,3.804 -10.804,7.479 -16.237,11.192c-4.946,3.367 -9.742,6.779 -14.787,10.092c-5.713,3.754 -11.667,7.396 -17.571,11.067c-5.05,3.175 -10,6.421 -15.179,9.537c-6.242,3.771 -12.775,7.417 -19.213,11.117c-5.037,2.925 -9.983,5.879 -15.175,8.763c-6.958,3.862 -14.254,7.608 -21.458,11.412c-4.904,2.583 -9.658,5.2 -14.65,7.746c-8.108,4.158 -16.567,8.162 -24.967,12.175c-4.325,2.088 -8.508,4.229 -12.883,6.262c-12.917,6.042 -26.167,11.917 -39.654,17.671c-15.567,6.637 -31.175,12.758 -46.871,18.613c-4.846,1.825 -9.758,3.483 -14.654,5.229c-10.987,3.95 -22.033,7.725 -33.083,11.258c-5.475,1.758 -10.938,3.475 -16.379,5.121c-11.183,3.392 -22.371,6.542 -33.558,9.533c-4.808,1.308 -9.612,2.667 -14.462,3.863c-15.842,4.021 -31.733,7.737 -47.638,10.958c-0.667,0.142 -1.338,0.237 -2.008,0.358c-15.279,3.071 -30.55,5.708 -45.875,8.058c-4.983,0.771 -10.038,1.404 -15.033,2.1c-11.175,1.554 -22.362,2.95 -33.562,4.104c-5.517,0.592 -11.092,1.129 -16.608,1.629c-11.388,0.983 -22.767,1.771 -34.1,2.379c-4.846,0.267 -9.654,0.6 -14.496,0.796c-16,0.654 -31.992,0.979 -47.979,0.854c-1.4,0 -2.829,-0.083 -4.275,-0.121c-14.55,-0.154 -29.15,-0.692 -43.746,-1.492c-5.183,-0.271 -10.371,-0.712 -15.562,-1.071c-11.042,-0.783 -22.046,-1.725 -33.088,-2.858c-5.617,-0.579 -11.188,-1.2 -16.804,-1.867c-11.388,-1.375 -22.717,-2.958 -34.046,-4.704c-4.762,-0.729 -9.475,-1.371 -14.229,-2.171c-15.871,-2.658 -31.742,-5.637 -47.567,-9.079c-1.9,-0.4 -3.821,-0.938 -5.738,-1.338c-67.713,-15.05 -134.846,-36.808 -200.829,-65.454c-675.542,-293.2 -570.817,-894.367 -574.521,-1506.629c-0.046,-42.929 -19.958,-65.242 -57.492,-66.867c2.6,0.025 5.113,0.088 7.588,0.162c-1.754,-0.117 -3.5,-0.187 -5.254,-0.187l-216.221,0c-43.317,0 -65.933,24.487 -65.933,67.804l0,552.5l-0.05,124.183c0,445.333 245.725,832.25 610.058,1029.4" style="fill:#002859;"/></g></svg>