<svg width="695" height="348" viewBox="0 0 695 348" fill="none" xmlns="http://www.w3.org/2000/svg">
<path d="M217.722 0.0610209C218.444 0.0573371 219.167 0.0536533 219.911 0.0498506C221.435 0.045632 222.96 0.0475333 224.485 0.0550793C226.818 0.0633382 229.149 0.0430771 231.482 0.0203799C232.965 0.0198452 234.447 0.0209147 235.93 0.0238855C236.627 0.0159831 237.324 0.00814008 238.042 0C242.856 0.0550198 242.856 0.0550199 245.418 1.75778C247.052 3.95507 247.347 5.68392 247.333 8.30591C247.332 9.06841 247.332 9.06841 247.331 9.84623C247.324 10.6762 247.324 10.6762 247.317 11.523C247.315 12.1099 247.313 12.6969 247.311 13.3016C247.307 14.5789 247.301 15.8563 247.293 17.1336C247.282 19.1727 247.275 21.2117 247.27 23.2508C247.254 29.0501 247.231 34.8494 247.202 40.6487C247.013 79.2413 247.024 119.755 277.759 149.533C278.236 150.008 278.713 150.483 279.204 150.972C300.014 170.985 333.477 182.214 363.263 182.907C396.713 183.205 430.015 172.194 454.228 150.747C475.544 131.315 482.548 104.81 485.385 78.2334C485.813 78.2334 486.241 78.2334 486.682 78.2334C485.809 112.581 476.088 142.537 450.997 168.547C450.554 169.009 450.554 169.009 450.102 169.48C426.193 194.299 391.58 209.161 355.619 211.327C328.853 212.269 303.418 208.192 279.706 196.473C278.582 195.926 278.582 195.926 277.435 195.368C245.04 179.052 221.157 150.661 210.874 118.259C209.824 114.762 208.945 111.238 208.172 107.682C208.025 107.015 208.025 107.015 207.875 106.334C205.53 94.6427 205.542 82.8046 205.565 70.9639C205.568 68.6753 205.565 66.3865 205.563 64.0979C205.561 60.2688 205.564 56.4396 205.57 52.6105C205.577 48.1899 205.575 43.7695 205.568 39.3489C205.562 35.5313 205.561 31.7138 205.564 27.8962C205.566 25.6251 205.567 23.3541 205.562 21.083C205.558 18.9565 205.561 16.8301 205.569 14.7037C205.571 13.5541 205.567 12.4045 205.563 11.255C205.567 10.569 205.571 9.88307 205.574 9.17631C205.575 8.58185 205.575 7.98738 205.576 7.37486C205.82 4.93842 206.564 3.29091 208.275 1.42125C211.344 -0.145095 214.263 0.0464044 217.722 0.0610209Z" fill="#1F2453"/>
<path d="M347.639 2.58906C348.096 2.59013 348.554 2.5912 349.026 2.59233C355.948 2.6199 362.529 2.92108 369.253 4.55723C369.676 4.65919 370.099 4.76115 370.535 4.8662C394.416 10.7615 412.556 24.6161 426.35 43.1781C427.374 44.809 427.647 45.4136 427.647 47.3372C423.54 47.5348 419.435 47.669 415.323 47.7615C413.928 47.8001 412.534 47.8527 411.14 47.9199C398.915 48.4948 398.915 48.4948 395.223 45.684C393.519 44.1102 392.128 42.3949 390.778 40.5605C383.908 32.0254 370.268 27.5012 359.36 25.5889C349.526 24.2905 339.097 24.8266 329.674 27.7297C329.263 27.8539 328.851 27.9781 328.427 28.106C317.962 31.3624 309.51 36.6131 301.774 43.7722C300.985 44.4754 300.985 44.4754 300.18 45.1926C292.657 52.2874 288.45 61.3181 284.905 70.5097C284.691 70.5097 284.477 70.5097 284.256 70.5097C283.3 53.6907 290.687 37.2683 302.786 24.8355C308.421 19.4354 314.947 15.5508 321.888 11.6872C304.902 19.2904 292.802 30.9003 286.361 47.4039C279.351 66.6291 281.065 87.3161 290.871 105.481C300.704 122.753 317.543 134.559 337.636 140.47C359.248 146.528 381.42 144.918 401.694 135.868C402.651 135.448 402.651 135.448 403.628 135.019C407.124 133.383 410.256 131.428 413.373 129.258C413.732 129.008 414.09 128.759 414.46 128.502C416.348 127.146 417.884 125.818 419.213 123.985C418.803 124.273 418.393 124.561 417.971 124.857C404.545 134.069 389.203 139.724 372.497 141.216C373.939 139.711 375.588 138.74 377.449 137.708C385.055 133.478 394.905 126.964 397.674 118.9C398.531 116.861 399.172 115.863 401.045 114.478C405.714 113.345 410.779 113.73 415.563 113.81C416.921 113.811 418.278 113.809 419.636 113.805C422.956 113.8 426.274 113.832 429.594 113.884C429.261 116.08 428.87 117.892 427.713 119.844C427.46 120.272 427.206 120.701 426.945 121.142C426.53 121.814 426.53 121.814 426.106 122.499C425.815 122.971 425.524 123.443 425.225 123.929C413.804 141.997 394.799 155.691 372.826 161.331C349.333 166.957 325.15 164.558 303.883 153.674C290.703 146.363 279.964 136.628 271.928 124.579C271.574 124.051 271.574 124.051 271.213 123.512C259.319 105.407 256.966 82.9257 262.317 62.5999C263.829 57.245 266.004 52.284 268.684 47.3372C269.226 46.3205 269.226 46.3205 269.779 45.2832C273.721 38.2395 278.995 32.2761 284.905 26.5414C285.349 26.0964 285.793 25.6514 286.251 25.1929C301.874 10.0926 325.314 2.47943 347.639 2.58906ZM325.132 9.90473C324.704 10.2969 324.276 10.689 323.835 11.0931C324.905 10.897 325.976 10.7009 327.079 10.4989C326.436 10.3028 325.794 10.1068 325.132 9.90473Z" fill="#1F2453"/>
<path d="M450.019 0.282173C450.606 0.272607 451.193 0.2631 451.798 0.253237C454.475 0.226796 457.153 0.202435 459.83 0.18877C461.243 0.178906 462.655 0.162686 464.067 0.139989C466.104 0.107488 468.141 0.0944754 470.179 0.0857411C470.809 0.072313 471.439 0.0588254 472.088 0.0449219C475.077 0.0535373 476.499 0.087583 478.961 1.75309C481.109 4.55096 480.973 7.07914 481.055 10.4257C481.068 10.9075 481.082 11.3892 481.096 11.8857C481.14 13.5149 481.178 15.1441 481.214 16.7735C481.234 17.6254 481.234 17.6254 481.255 18.4944C481.507 29.6044 481.588 40.7151 481.616 51.8271C481.62 53.1112 481.626 54.3952 481.633 55.6792C481.8 87.6526 478.209 118.75 454.247 143.591C453.806 144.054 453.806 144.054 453.356 144.525C449.03 149.038 444.541 152.998 439.324 156.663C438.779 157.08 438.234 157.497 437.672 157.928C418.252 172.293 391.334 178.975 366.736 178.721C365.715 178.715 364.694 178.71 363.672 178.705C361.206 178.692 358.74 178.671 356.274 178.647C356.488 178.255 356.702 177.862 356.923 177.458C358.22 177.072 358.22 177.072 359.936 176.73C360.57 176.597 361.204 176.465 361.857 176.329C362.544 176.187 363.231 176.045 363.938 175.899C390.707 170.037 415.329 155.55 430.241 134.084C441.777 116.872 442.11 97.5449 442.098 77.9644C442.096 74.9524 442.105 71.9405 442.116 68.9286C442.147 60.3743 442.162 51.8201 442.167 43.2659C442.169 38.5189 442.181 33.772 442.202 29.025C442.215 26.0326 442.217 23.0405 442.21 20.0481C442.208 18.1912 442.217 16.3345 442.23 14.4777C442.233 13.6188 442.232 12.7599 442.226 11.901C442.219 10.7268 442.229 9.5526 442.24 8.37846C442.241 7.72239 442.242 7.06637 442.242 6.39044C442.651 4.09084 443.572 2.78985 445.164 0.990954C446.979 0.436894 448.138 0.310039 450.019 0.282173Z" fill="#1F2453"/>
<path d="M376.33 52.8069C377.934 54.1011 379.445 55.438 380.935 56.8407C381.292 57.1479 381.648 57.455 382.015 57.7714C384.481 60.0839 385.998 62.8614 387.586 65.7161C387.808 66.1132 388.029 66.5104 388.258 66.9196C392.431 74.7267 392.892 84.8951 390.262 93.2334C386.004 103.632 379.009 111.359 367.959 116.109C357.754 120.002 346.706 120.137 336.288 116.74C325.344 112.526 318.158 104.844 313.366 95.1041C310.034 86.59 310.02 75.8224 314.106 67.5357C314.381 66.9728 314.656 66.4098 314.94 65.8298C317.213 61.6488 320.253 58.3528 323.838 55.0582C324.19 54.7228 324.541 54.3872 324.903 54.0416C338.579 42.0867 361.831 42.6923 376.33 52.8069Z" fill="#1F2453"/>
<path d="M518.166 247.962C519.796 248.817 519.796 248.817 521.732 249.352C523.041 248.843 523.041 248.843 524.449 248.052C533.415 243.748 543.104 243.052 552.876 245.193C554.936 245.828 556.812 246.612 558.716 247.569C559.115 247.762 559.514 247.955 559.925 248.154C564.808 250.891 567.583 255.734 569.016 260.678C570.577 266.985 570.483 273.397 570.458 279.826C570.457 280.75 570.456 281.674 570.455 282.598C570.453 285.011 570.446 287.423 570.439 289.836C570.431 292.741 570.428 295.646 570.425 298.551C570.418 302.947 570.406 307.343 570.395 311.739C563.543 311.739 556.691 311.739 549.632 311.739C549.6 309.127 549.568 306.514 549.536 303.823C549.507 301.719 549.477 299.615 549.446 297.511C549.413 295.301 549.383 293.092 549.358 290.883C549.334 288.748 549.304 286.614 549.27 284.48C549.252 283.283 549.241 282.086 549.229 280.889C549.333 271.507 549.333 271.507 545.739 263.018C542.653 260.999 539.668 260.808 536.007 261.235C534.007 261.718 532.088 262.319 530.167 263.018C530.273 263.512 530.378 264.007 530.487 264.516C530.84 266.737 530.902 268.895 530.89 271.133C530.89 271.574 530.89 272.015 530.89 272.469C530.889 273.916 530.884 275.362 530.879 276.809C530.878 277.816 530.877 278.824 530.877 279.831C530.874 282.474 530.868 285.117 530.86 287.76C530.854 290.461 530.851 293.161 530.848 295.862C530.841 301.154 530.829 306.447 530.816 311.739C523.964 311.739 517.113 311.739 510.053 311.739C510.029 308.806 510.005 305.872 509.98 302.85C509.96 300.982 509.94 299.113 509.918 297.245C509.883 294.285 509.849 291.326 509.829 288.366C509.812 285.977 509.785 283.589 509.753 281.2C509.742 280.293 509.735 279.386 509.73 278.479C509.958 269.939 509.958 269.939 505.836 262.683C501.005 260.14 498.842 261.235 491.886 261.235C491.886 277.902 491.886 294.568 491.886 311.739C485.034 311.739 478.183 311.739 471.124 311.739C471.124 290.563 471.124 269.387 471.124 247.569C505.283 241.554 505.283 241.554 518.166 247.962Z" fill="#1F2453"/>
<path d="M0.0792495 220.832C7.57324 220.832 15.0672 220.832 22.7883 220.832C22.7943 222.727 22.8004 224.622 22.8067 226.574C22.8286 232.847 22.8647 239.119 22.9076 245.392C22.9332 249.194 22.9541 252.995 22.9641 256.797C22.974 260.469 22.9964 264.14 23.0273 267.811C23.0369 269.209 23.042 270.608 23.0426 272.006C23.0441 273.97 23.0617 275.933 23.0829 277.897C23.0797 278.47 23.0764 279.043 23.0731 279.634C23.1442 283.912 23.9863 288.127 27.0804 291.488C33.6181 297.283 43.6909 296.291 51.9857 296.291C51.9857 271.586 51.9857 246.88 51.9857 221.426C59.6938 221.426 67.4019 221.426 75.3435 221.426C75.3435 250.445 75.3435 279.464 75.3435 309.363C55.7805 313.497 30.49 316.753 11.7481 307.838C5.56959 304.187 1.95145 298.389 0.377387 291.867C-0.0394864 288.914 -0.00542287 285.998 0.00560724 283.024C0.00547748 282.351 0.00541259 281.678 0.00528283 280.985C0.00573701 278.767 0.0107979 276.549 0.0158588 274.33C0.0170915 272.79 0.0179999 271.25 0.0186487 269.71C0.0209196 266.074 0.0259805 262.437 0.0325337 258.801C0.0398006 254.66 0.0433692 250.519 0.0466133 246.378C0.0533611 237.863 0.0652347 229.347 0.0792495 220.832Z" fill="#1F2453"/>
<path d="M263.503 228.554C264.145 229.436 264.145 229.436 264.8 230.336C264.442 231.893 264.442 231.893 263.718 233.739C263.459 234.401 263.2 235.063 262.934 235.744C262.513 236.781 262.513 236.781 262.083 237.838C261.815 238.533 261.547 239.229 261.271 239.945C259.744 243.778 259.744 243.778 258.961 245.191C256.437 245.961 255.743 245.41 253.365 244.411C244.431 240.878 234.056 239.675 224.753 242.816C217.833 245.712 214.419 250.103 211.596 256.48C208.509 264.543 209.493 275.515 213.081 283.234C216.288 289.083 220.005 291.493 226.542 293.924C236.001 296.788 248.141 295.211 257.09 291.399C258.312 290.941 258.312 290.941 260.258 290.941C260.993 292.722 261.721 294.505 262.448 296.289C262.654 296.788 262.86 297.286 263.072 297.8C264.305 300.835 265.308 303.827 266.098 306.984C257.335 311.594 247.484 312.95 237.549 313.52C236.945 313.556 236.34 313.592 235.717 313.629C221.989 313.992 208.972 310.615 198.827 301.922C188.25 291.567 186.41 277.465 186.852 263.918C187.563 251.886 193.039 241.047 202.513 232.713C218.564 220.492 245.385 219.253 263.503 228.554Z" fill="#1F2453"/>
<path d="M319.302 249.357C327.045 254.994 330.166 262.91 331.427 271.675C331.867 276.214 331.685 280.493 330.981 285.007C315.993 285.007 301.005 285.007 285.562 285.007C288.093 291.11 288.093 291.11 293.348 294.514C303.324 298.309 314.529 296.033 324.492 293.325C324.93 295.441 325.36 297.558 325.79 299.675C325.914 300.274 326.037 300.873 326.165 301.489C326.282 302.069 326.399 302.65 326.52 303.247C326.629 303.779 326.737 304.312 326.849 304.86C327.086 306.385 327.13 307.829 327.088 309.368C314.427 314.337 298.038 315.259 285.035 311.002C275.724 307.458 270.141 302.215 266.118 293.792C261.878 283.367 262.711 271.36 267.578 261.305C272.105 253.059 278.723 248.365 287.947 245.056C298.201 241.979 310.514 243.847 319.302 249.357ZM288.644 263.803C286.364 266.394 285.562 268.593 285.562 271.935C293.913 271.935 302.263 271.935 310.867 271.935C310.238 266.751 309.978 264.969 305.96 261.649C300.47 258.168 292.97 259.52 288.644 263.803Z" fill="#1F2453"/>
<path d="M628.863 248.944C634.344 253.414 636.859 258.125 637.875 264.798C637.931 266.321 637.958 267.826 637.949 269.348C637.949 269.789 637.949 270.23 637.949 270.684C637.949 272.131 637.944 273.578 637.939 275.024C637.938 276.032 637.937 277.039 637.936 278.046C637.933 280.689 637.927 283.333 637.92 285.976C637.913 288.676 637.91 291.377 637.907 294.077C637.9 299.37 637.889 304.662 637.875 309.955C635.632 310.342 633.388 310.725 631.144 311.106C630.204 311.268 630.204 311.268 629.245 311.434C614.405 313.943 595.911 315.491 582.725 307.578C577.977 303.994 576.244 298.836 575.628 293.392C575.363 287.802 576.279 282.673 580.312 278.311C587.382 271.748 596.766 270.148 606.569 270.034C615.285 270.2 615.285 270.2 617.762 271.334C617.181 267.319 616.553 264.602 613.22 261.827C609.976 260.535 607.003 260.433 603.528 260.453C602.99 260.454 602.451 260.454 601.897 260.454C597.509 260.513 593.467 261.128 589.216 262.089C587.307 262.414 586.473 262.314 584.671 261.827C584.343 260.02 584.019 258.213 583.698 256.405C583.605 255.897 583.512 255.388 583.417 254.864C582.947 252.204 582.609 249.679 582.725 246.973C596.272 243.175 616.71 240.427 628.863 248.944ZM597.648 286.782C596.24 288.745 596.284 290.215 596.675 292.464C597.275 294.61 597.595 295.058 599.513 296.586C602.052 297.702 604.072 298.146 606.876 298.15C607.386 298.151 607.896 298.152 608.421 298.153C608.947 298.15 609.474 298.148 610.016 298.146C610.81 298.149 610.81 298.149 611.619 298.153C612.128 298.152 612.637 298.151 613.162 298.15C613.855 298.149 613.855 298.149 614.563 298.148C615.958 298.111 615.958 298.111 617.762 297.477C617.762 292.967 617.762 288.458 617.762 283.811C606.937 282.434 606.937 282.434 597.648 286.782Z" fill="#1F2453"/>
<path d="M398.459 245.787C405.525 245.787 412.591 245.787 419.871 245.787C419.907 250.198 419.907 250.198 419.944 254.697C419.964 256.568 419.984 258.439 420.006 260.311C420.041 263.276 420.075 266.24 420.095 269.205C420.112 271.598 420.139 273.99 420.171 276.383C420.182 277.292 420.189 278.201 420.193 279.111C420.217 283.956 420.408 288.201 422.466 292.726C422.68 293.314 422.894 293.903 423.115 294.509C428.249 297.1 434.399 296.291 439.984 296.291C439.984 279.625 439.984 262.959 439.984 245.787C446.836 245.787 453.688 245.787 460.747 245.787C460.747 266.767 460.747 287.747 460.747 309.363C450.602 311.685 442.051 313.024 431.793 313.114C431.066 313.124 430.34 313.135 429.591 313.146C420.982 313.139 413.353 311.699 406.752 306.432C398.14 298.413 398.245 286.557 398.332 276.018C398.335 275.138 398.337 274.258 398.338 273.378C398.343 271.096 398.356 268.813 398.37 266.53C398.386 263.774 398.392 261.017 398.399 258.261C398.412 254.103 398.437 249.945 398.459 245.787Z" fill="#1F2453"/>
<path d="M138.512 250.169C144.502 255.466 147.147 262.244 147.431 269.869C147.429 270.643 147.428 271.416 147.426 272.212C147.426 272.642 147.426 273.071 147.427 273.513C147.426 274.922 147.421 276.33 147.416 277.738C147.415 278.718 147.414 279.699 147.413 280.68C147.411 283.253 147.404 285.825 147.397 288.398C147.389 291.49 147.386 294.581 147.383 297.673C147.376 302.362 147.364 307.051 147.353 311.74C140.501 311.74 133.649 311.74 126.59 311.74C126.566 308.949 126.542 306.158 126.517 303.282C126.497 301.5 126.477 299.719 126.454 297.937C126.419 295.117 126.386 292.297 126.365 289.477C126.348 287.2 126.322 284.923 126.29 282.646C126.279 281.783 126.271 280.92 126.267 280.057C126.479 271.278 126.479 271.278 122.83 263.491C117.674 259.645 112.881 261.236 105.828 261.236C105.828 277.902 105.828 294.568 105.828 311.74C98.9759 311.74 92.1242 311.74 85.0649 311.74C85.0649 290.76 85.0649 269.78 85.0649 248.164C89.0303 246.954 92.5587 245.991 96.6222 245.416C97.131 245.342 97.6397 245.268 98.1638 245.191C111.287 243.332 127.791 241.654 138.512 250.169Z" fill="#1F2453"/>
<path d="M381.708 245.084C382.255 245.182 382.802 245.28 383.365 245.381C387.962 246.305 387.962 246.305 389.373 248.166C389.306 249.549 389.306 249.549 388.876 251.158C388.726 251.736 388.576 252.315 388.422 252.911C388.254 253.514 388.086 254.117 387.913 254.739C387.755 255.344 387.597 255.95 387.434 256.573C386.264 260.989 386.264 260.989 385.48 262.426C384.742 262.254 384.004 262.083 383.244 261.906C372.606 259.431 372.606 259.431 361.919 260.792C360.156 261.677 360.156 261.677 359.445 262.946C359.573 264.925 360.043 265.646 361.473 267.179C364.387 268.919 367.662 270.046 370.878 271.227C386.359 276.938 386.359 276.938 390.67 283.816C392.917 288.744 392.843 295.307 391.499 300.471C388.634 306.674 383.543 309.228 377.045 311.742C375.098 312.342 373.241 312.697 371.205 312.93C370.723 313.001 370.24 313.072 369.743 313.146C359.645 314.347 345.909 314.089 336.817 309.365C337.922 297.836 337.922 297.836 340.062 293.917C340.838 294.076 341.614 294.235 342.414 294.399C342.952 294.506 343.491 294.612 344.046 294.722C345.329 294.987 346.606 295.275 347.878 295.581C355.057 297.209 363.288 297.954 370.557 296.293C370.623 295.558 370.69 294.823 370.759 294.065C370.816 293.445 370.816 293.445 370.873 292.812C370.379 290.827 369.128 290.266 367.312 289.163C365.928 288.552 364.519 287.985 363.095 287.455C362.29 287.15 361.486 286.843 360.682 286.536C360.276 286.382 359.869 286.227 359.45 286.068C351.516 283.016 344.55 280.207 340.062 273.121C337.892 267.275 337.627 260.378 340.584 254.727C344.714 248.263 350.745 246.094 358.383 244.25C366.056 243.207 374.135 243.704 381.708 245.084Z" fill="#1F2453"/>
<path d="M694.973 246.384C695.133 249.878 694.538 253.006 693.716 256.411C693.598 256.925 693.479 257.44 693.357 257.97C692.468 261.75 692.468 261.75 691.729 262.427C690.525 262.376 690.525 262.376 689.012 262.204C688.521 262.15 688.03 262.097 687.524 262.041C686.349 261.891 685.178 261.713 684.011 261.517C681.904 261.226 679.909 261.159 677.779 261.164C677.077 261.163 676.374 261.161 675.65 261.159C673.248 261.211 673.248 261.211 669.669 261.833C669.455 278.303 669.24 294.773 669.02 311.743C662.168 311.743 655.317 311.743 648.257 311.743C648.257 291.155 648.257 270.567 648.257 249.355C662.661 244.079 679.886 242.021 694.973 246.384Z" fill="#1F2453"/>
<path d="M157.087 245.787C163.939 245.787 170.79 245.787 177.849 245.787C177.849 267.551 177.849 289.316 177.849 311.74C170.998 311.74 164.146 311.74 157.087 311.74C157.087 289.975 157.087 268.211 157.087 245.787Z" fill="#1F2453"/>
<path d="M172.945 216.617C176.169 218.352 178.276 220.531 179.643 223.766C180.133 227.467 179.922 230.652 177.859 233.904C175.408 236.355 173.205 237.924 169.495 238.204C164.965 238.296 162.005 238.29 158.394 235.686C154.983 232.234 154.924 229.868 154.97 225.286C155.216 222.445 155.77 221.239 157.745 219.05C162.149 215.922 167.565 214.777 172.945 216.617Z" fill="#1F2453"/>
<path d="M310.22 329.566C314.113 329.566 314.113 329.566 315.628 330.866C316.065 331.418 316.502 331.969 316.951 332.537C317.398 333.089 317.845 333.64 318.305 334.208C318.634 334.637 318.964 335.066 319.303 335.508C319.517 333.547 319.732 331.587 319.952 329.566C321.237 329.566 322.522 329.566 323.845 329.566C323.845 334.272 323.845 338.978 323.845 343.826C322.56 343.826 321.276 343.826 319.952 343.826C318.578 342.397 318.578 342.397 317.438 340.558C317.052 339.952 316.665 339.345 316.267 338.72C315.984 338.248 315.702 337.777 315.41 337.291C315.196 339.447 314.982 341.604 314.762 343.826C313.263 343.826 311.764 343.826 310.22 343.826C310.22 339.121 310.22 334.415 310.22 329.566Z" fill="#1F2453"/>
<path d="M37.502 329.417C40.6483 329.441 42.8562 329.634 45.4908 331.348C47.4575 334.049 47.6198 336.303 47.0317 339.48C45.9863 341.787 45.2634 342.6 42.8955 343.825C39.3809 344.5 36.7265 344.34 33.163 343.825C33.1442 341.56 33.1326 339.295 33.1224 337.029C33.117 336.383 33.1115 335.736 33.106 335.069C33.1039 334.455 33.1018 333.84 33.0996 333.207C33.0962 332.637 33.0929 332.068 33.0894 331.481C33.2345 328.876 35.0479 329.45 37.502 329.417ZM37.7048 332.536C37.7048 335.281 37.7048 338.026 37.7048 340.854C38.9895 340.658 40.2742 340.462 41.5978 340.26C43.0984 338.199 43.1711 337.336 42.8955 334.913C42.1926 333.774 42.1926 333.774 40.949 333.13C39.8784 332.934 38.8078 332.738 37.7048 332.536Z" fill="#1F2453"/>
<path d="M498.829 329.417C501.967 329.444 504.215 329.592 506.817 331.348C508.731 334.104 508.503 337.11 508.115 340.26C507.223 342.08 507.223 342.08 505.52 343.231C501.665 344.441 498.5 344.449 494.49 343.825C494.471 341.56 494.459 339.295 494.449 337.029C494.444 336.383 494.438 335.736 494.433 335.069C494.431 334.455 494.428 333.84 494.426 333.207C494.423 332.637 494.42 332.068 494.416 331.481C494.561 328.876 496.375 329.45 498.829 329.417ZM499.031 332.536C499.031 335.281 499.031 338.026 499.031 340.854C500.316 340.658 501.601 340.462 502.924 340.26C504.425 338.199 504.498 337.336 504.222 334.913C503.519 333.774 503.519 333.774 502.276 333.13C501.205 332.934 500.134 332.738 499.031 332.536Z" fill="#1F2453"/>
<path d="M179.158 329.565C181.225 330.63 182.095 331.445 183.254 333.316C184.074 336.25 184.127 338.624 182.605 341.337C180.504 343.989 180.504 343.989 177.861 344.419C174.626 344.5 172.632 344.279 170.075 342.377C167.814 339.724 167.78 337.608 168.128 334.318C170.346 329.647 173.987 328.874 179.158 329.565ZM172.67 334.318C172.071 336.159 171.89 337.388 172.386 339.257C173.307 340.426 173.307 340.426 175.225 340.817C177.142 340.994 177.142 340.994 178.428 340.297C179.58 338.364 179.612 336.465 179.158 334.318C178.036 333.076 178.036 333.076 176.563 332.536C174.674 332.536 174.014 333.127 172.67 334.318Z" fill="#1F2453"/>
<path d="M576.88 324.814C578.752 325.583 580.042 326.395 581.422 327.785C580.611 328.714 580.611 328.714 579.476 329.568C578.178 329.345 578.178 329.345 576.88 328.974C576.238 329.17 575.596 329.366 574.934 329.568C574.506 328.783 574.077 327.999 573.636 327.191C574.707 326.407 575.777 325.623 576.88 324.814ZM577.57 329.531C578.513 329.549 578.513 329.549 579.476 329.568C580.332 331.385 581.182 333.206 582.03 335.027C582.394 335.797 582.394 335.797 582.764 336.583C583.112 337.333 583.112 337.333 583.467 338.097C583.682 338.555 583.896 339.012 584.116 339.483C584.692 340.922 585.029 342.32 585.315 343.828C583.816 343.828 582.317 343.828 580.773 343.828C580.452 342.357 580.452 342.357 580.124 340.857C577.496 341.003 577.496 341.003 574.934 341.451C573.902 342.592 573.902 342.592 573.636 343.828C572.351 343.828 571.067 343.828 569.743 343.828C570.143 340.635 571.305 337.956 572.663 335.027C572.975 334.336 572.975 334.336 573.294 333.631C575.146 329.576 575.146 329.576 577.57 329.531ZM576.88 334.915C576.666 335.896 576.452 336.876 576.231 337.886C577.088 337.886 577.944 337.886 578.827 337.886C578.399 336.906 577.97 335.925 577.529 334.915C577.315 334.915 577.101 334.915 576.88 334.915Z" fill="#1F2453"/>
<path d="M231.171 329.415C234.186 329.458 236.443 329.501 238.835 331.346C239.489 332.958 239.664 334.39 239.484 336.1C238.551 337.585 238.551 337.585 237.537 338.476C237.966 339.138 238.394 339.8 238.835 340.482C240.133 342.487 240.133 342.487 240.133 343.824C238.024 344.047 238.024 344.047 235.591 343.824C232.996 341.021 232.996 341.021 232.996 339.07C232.567 339.07 232.139 339.07 231.698 339.07C231.698 340.639 231.698 342.208 231.698 343.824C230.199 343.824 228.7 343.824 227.156 343.824C227.137 341.559 227.126 339.293 227.116 337.028C227.11 336.381 227.105 335.734 227.099 335.068C227.097 334.453 227.095 333.839 227.093 333.205C227.089 332.636 227.086 332.067 227.083 331.48C227.222 328.974 228.78 329.451 231.171 329.415ZM231.698 332.535C231.698 333.711 231.698 334.888 231.698 336.1C232.769 335.904 233.839 335.707 234.942 335.505C234.942 334.721 234.942 333.937 234.942 333.129C233.872 332.933 232.801 332.737 231.698 332.535Z" fill="#1F2453"/>
<path d="M594.393 329.566C597.637 329.566 597.637 329.566 599.089 330.866C599.534 331.418 599.978 331.969 600.435 332.537C600.888 333.089 601.34 333.64 601.806 334.208C602.144 334.637 602.481 335.066 602.828 335.508C603.042 333.547 603.256 331.587 603.477 329.566C604.761 329.566 606.046 329.566 607.37 329.566C607.37 334.272 607.37 338.978 607.37 343.826C606.299 343.826 605.229 343.826 604.126 343.826C602.673 342.397 602.673 342.397 601.327 340.558C600.875 339.952 600.422 339.345 599.956 338.72C599.619 338.248 599.282 337.777 598.935 337.291C598.721 339.447 598.507 341.604 598.286 343.826C597.001 343.826 595.717 343.826 594.393 343.826C594.393 339.121 594.393 334.415 594.393 329.566Z" fill="#1F2453"/>
<path d="M135.041 329.564C135.469 329.761 135.897 329.957 136.339 330.159C136.124 331.335 135.91 332.512 135.69 333.724C134.981 333.613 134.271 333.503 133.541 333.389C131.189 332.976 131.189 332.976 129.201 333.724C128.224 335.514 128.437 337.1 128.553 339.071C129.712 340.386 129.712 340.386 131.254 340.376C132.045 340.355 132.045 340.355 132.851 340.334C133.381 340.323 133.912 340.312 134.458 340.301C135.068 340.281 135.068 340.281 135.69 340.259C135.904 341.24 136.118 342.22 136.339 343.23C135.268 343.426 134.197 343.622 133.094 343.824C133.108 344.4 133.121 344.976 133.135 345.57C133.094 347.389 133.094 347.389 132.446 347.984C130.932 348.008 129.417 348.009 127.904 347.984C127.904 347.199 127.904 346.415 127.904 345.607C128.332 345.607 128.76 345.607 129.201 345.607C129.201 345.019 129.201 344.431 129.201 343.824C128.706 343.775 128.211 343.726 127.701 343.676C125.584 343.135 125.107 342.56 124.011 340.854C122.987 338.042 123.02 335.77 124.132 332.981C126.887 329.153 130.389 329.172 135.041 329.564Z" fill="#1F2453"/>
<path d="M56.5116 329.566C57.7963 329.566 59.081 329.566 60.4046 329.566C60.4439 330.239 60.4832 330.911 60.5237 331.604C60.5785 332.485 60.6334 333.365 60.6885 334.245C60.714 334.689 60.7395 335.132 60.7657 335.589C60.869 338.004 60.869 338.004 61.7023 340.261C62.5587 340.261 63.4152 340.261 64.2976 340.261C65.3266 338.377 65.1921 336.319 65.3114 334.245C65.3394 333.797 65.3674 333.349 65.3963 332.888C65.4652 331.781 65.5306 330.674 65.5953 329.566C66.8799 329.566 68.1646 329.566 69.4882 329.566C69.5584 331.387 69.6098 333.205 69.6504 335.025C69.6831 335.796 69.6831 335.796 69.7164 336.581C69.7576 339.049 69.7178 340.487 68.3604 342.668C66.0725 344.474 64.0028 344.589 61.0534 344.421C59.0973 343.696 58.1746 343.19 57.0847 341.543C56.4604 340.147 56.3615 339.191 56.3849 337.69C56.3891 337.215 56.3933 336.74 56.3976 336.251C56.4085 335.761 56.4193 335.27 56.4305 334.765C56.4364 334.266 56.4422 333.767 56.4482 333.252C56.4635 332.023 56.4868 330.795 56.5116 329.566Z" fill="#1F2453"/>
<path d="M374.448 329.566C375.733 329.566 377.018 329.566 378.341 329.566C384.181 339.67 384.181 339.67 384.181 343.826C382.896 343.826 381.611 343.826 380.288 343.826C379.86 342.846 379.431 341.866 378.99 340.856C377.277 340.856 375.564 340.856 373.8 340.856C373.585 341.836 373.371 342.816 373.151 343.826C371.652 343.826 370.153 343.826 368.609 343.826C370.035 338.853 372.171 334.249 374.448 329.566ZM375.746 334.914C375.532 335.894 375.318 336.875 375.097 337.885C375.954 337.885 376.81 337.885 377.693 337.885C377.478 336.904 377.264 335.924 377.044 334.914C376.615 334.914 376.187 334.914 375.746 334.914Z" fill="#1F2453"/>
<path d="M210.132 329.417C210.811 329.402 211.49 329.387 212.19 329.371C214.437 329.59 215.628 330.125 217.431 331.349C218.434 333.186 218.271 334.672 218.08 336.696C217.107 338.107 217.107 338.107 215.485 339.073C213.73 339.434 212.1 339.557 210.294 339.667C210.294 341.039 210.294 342.412 210.294 343.826C208.795 343.826 207.297 343.826 205.752 343.826C205.734 341.561 205.722 339.296 205.712 337.03C205.706 336.383 205.701 335.737 205.695 335.07C205.693 334.456 205.691 333.841 205.689 333.208C205.686 332.638 205.682 332.069 205.679 331.482C205.825 328.865 207.671 329.45 210.132 329.417ZM210.294 333.131C210.294 334.111 210.294 335.092 210.294 336.102C211.365 335.906 212.435 335.71 213.538 335.508C213.538 334.723 213.538 333.939 213.538 333.131C212.468 333.131 211.397 333.131 210.294 333.131Z" fill="#1F2453"/>
<path d="M150.611 329.566C151.896 329.566 153.181 329.566 154.504 329.566C160.344 340.919 160.344 340.919 160.344 343.826C158.845 343.826 157.346 343.826 155.802 343.826C155.481 342.356 155.481 342.356 155.153 340.856C153.44 340.856 151.727 340.856 149.963 340.856C149.748 341.836 149.534 342.816 149.314 343.826C147.815 343.826 146.316 343.826 144.772 343.826C146.198 338.853 148.335 334.249 150.611 329.566ZM151.909 334.914C151.695 335.894 151.481 336.875 151.26 337.885C152.117 337.885 152.973 337.885 153.856 337.885C153.641 336.904 153.427 335.924 153.207 334.914C152.779 334.914 152.35 334.914 151.909 334.914Z" fill="#1F2453"/>
<path d="M657.992 329.566C659.276 329.566 660.561 329.566 661.885 329.566C667.724 339.67 667.724 339.67 667.724 343.826C666.44 343.826 665.155 343.826 663.831 343.826C663.724 343.446 663.617 343.067 663.507 342.675C662.675 341.354 662.675 341.354 661.292 341.16C659.98 341.017 658.661 340.933 657.343 340.856C657.129 341.836 656.915 342.816 656.694 343.826C655.195 343.826 653.697 343.826 652.152 343.826C653.579 338.853 655.715 334.249 657.992 329.566ZM659.938 334.914C659.51 335.894 659.082 336.875 658.641 337.885C659.497 337.885 660.354 337.885 661.236 337.885C661.022 336.904 660.808 335.924 660.587 334.914C660.373 334.914 660.159 334.914 659.938 334.914Z" fill="#1F2453"/>
<path d="M463.33 329.566C464.614 329.566 465.899 329.566 467.223 329.566C467.958 331.05 468.687 332.535 469.412 334.023C469.618 334.436 469.824 334.85 470.036 335.276C471.403 338.092 472.33 340.818 473.062 343.826C471.563 343.826 470.065 343.826 468.52 343.826C468.199 342.356 468.199 342.356 467.872 340.856C466.159 340.856 464.446 340.856 462.681 340.856C462.039 342.326 462.039 342.326 461.383 343.826C460.099 343.826 458.814 343.826 457.49 343.826C458.757 338.748 460.825 334.235 463.33 329.566ZM464.627 334.914C464.413 335.894 464.199 336.875 463.979 337.885C464.835 337.885 465.691 337.885 466.574 337.885C466.36 336.904 466.146 335.924 465.925 334.914C465.497 334.914 465.069 334.914 464.627 334.914Z" fill="#1F2453"/>
<path d="M105.836 329.566C107.121 329.566 108.405 329.566 109.729 329.566C115.569 339.794 115.569 339.794 115.569 343.826C114.284 343.826 112.999 343.826 111.676 343.826C111.568 343.446 111.461 343.067 111.351 342.675C110.519 341.354 110.519 341.354 109.136 341.16C107.824 341.017 106.505 340.933 105.187 340.856C104.973 341.836 104.759 342.816 104.538 343.826C103.04 343.826 101.541 343.826 99.9966 343.826C101.706 338.956 103.44 334.198 105.836 329.566ZM107.783 334.32C107.354 335.496 106.926 336.673 106.485 337.885C107.341 337.885 108.198 337.885 109.08 337.885C108.866 336.708 108.652 335.532 108.431 334.32C108.217 334.32 108.003 334.32 107.783 334.32Z" fill="#1F2453"/>
<path d="M249.215 329.566C252.855 329.566 256.495 329.566 260.245 329.566C260.245 330.743 260.245 331.919 260.245 333.131C257.89 333.131 255.534 333.131 253.108 333.131C253.108 333.72 253.108 334.308 253.108 334.914C255.035 334.914 256.962 334.914 258.947 334.914C258.947 335.894 258.947 336.875 258.947 337.885C257.02 337.885 255.093 337.885 253.108 337.885C253.108 338.865 253.108 339.845 253.108 340.856C255.463 340.856 257.818 340.856 260.245 340.856C260.245 341.836 260.245 342.816 260.245 343.826C256.605 343.826 252.965 343.826 249.215 343.826C249.215 339.121 249.215 334.415 249.215 329.566Z" fill="#1F2453"/>
<path d="M425.719 329.566C429.145 329.566 432.57 329.566 436.1 329.566C436.1 330.743 436.1 331.919 436.1 333.131C433.959 333.131 431.818 333.131 429.612 333.131C429.612 333.72 429.612 334.308 429.612 334.914C431.539 334.914 433.466 334.914 435.451 334.914C435.451 335.894 435.451 336.875 435.451 337.885C433.524 337.885 431.597 337.885 429.612 337.885C429.612 338.865 429.612 339.845 429.612 340.856C431.967 340.856 434.322 340.856 436.749 340.856C436.749 341.836 436.749 342.816 436.749 343.826C433.109 343.826 429.469 343.826 425.719 343.826C425.719 339.121 425.719 334.415 425.719 329.566Z" fill="#1F2453"/>
<path d="M290.095 329.566C293.521 329.566 296.946 329.566 300.476 329.566C300.476 330.743 300.476 331.919 300.476 333.131C298.335 333.131 296.194 333.131 293.988 333.131C293.988 333.72 293.988 334.308 293.988 334.914C295.915 334.914 297.842 334.914 299.827 334.914C299.827 335.894 299.827 336.875 299.827 337.885C297.9 337.885 295.973 337.885 293.988 337.885C293.988 338.865 293.988 339.845 293.988 340.856C296.343 340.856 298.698 340.856 301.125 340.856C301.125 341.836 301.125 342.816 301.125 343.826C297.485 343.826 293.845 343.826 290.095 343.826C290.095 339.121 290.095 334.415 290.095 329.566Z" fill="#1F2453"/>
<path d="M13.0625 329.566C16.4883 329.566 19.9141 329.566 23.4438 329.566C23.4438 330.743 23.4438 331.919 23.4438 333.131C21.3026 333.131 19.1615 333.131 16.9555 333.131C16.9555 333.72 16.9555 334.308 16.9555 334.914C18.8825 334.914 20.8095 334.914 22.795 334.914C22.795 335.894 22.795 336.875 22.795 337.885C20.8679 337.885 18.9409 337.885 16.9555 337.885C16.9555 338.865 16.9555 339.845 16.9555 340.856C19.3107 340.856 21.666 340.856 24.0926 340.856C24.0926 341.836 24.0926 342.816 24.0926 343.826C20.4527 343.826 16.8127 343.826 13.0625 343.826C13.0625 339.121 13.0625 334.415 13.0625 329.566Z" fill="#1F2453"/>
<path d="M278.423 329.569C278.851 329.765 279.279 329.961 279.721 330.163C279.506 331.144 279.292 332.124 279.072 333.134C277.359 333.134 275.646 333.134 273.881 333.134C274.713 334.657 275.456 334.812 277.125 335.511C279.648 336.567 279.648 336.567 280.369 337.887C280.669 341.655 280.669 341.655 279.518 343.161C277.076 344.651 274.78 344.558 271.935 344.423C270.029 343.829 270.029 343.829 268.69 343.235C269.119 342.254 269.547 341.274 269.988 340.264C271.915 340.264 273.842 340.264 275.828 340.264C274.998 338.744 274.243 338.564 272.583 337.85C270.043 336.749 270.043 336.749 269.339 336.105C269.112 333.9 269.028 332.451 270.231 330.497C272.837 329.077 275.459 329.281 278.423 329.569Z" fill="#1F2453"/>
<path d="M538.029 329.415C538.593 329.424 539.157 329.433 539.738 329.443C541.192 329.563 541.192 329.563 542.49 330.158C542.276 331.138 542.062 332.118 541.841 333.128C540.128 333.128 538.415 333.128 536.651 333.128C536.436 333.521 536.222 333.913 536.002 334.317C537.046 334.519 537.046 334.519 538.11 334.725C540.848 335.603 541.781 336.145 543.139 338.476C543.002 342.166 543.002 342.166 541.192 343.823C537.799 344.505 534.576 344.846 531.46 343.229C531.674 342.249 531.888 341.269 532.109 340.258C534.25 340.455 536.391 340.651 538.597 340.853C538.597 340.264 538.597 339.676 538.597 339.07C537.888 338.911 537.179 338.752 536.448 338.587C533.024 337.578 533.024 337.578 532.109 336.099C531.81 334.465 531.658 332.958 532.109 331.346C533.987 329.598 535.403 329.343 538.029 329.415Z" fill="#1F2453"/>
<path d="M628.793 329.564C629.221 329.76 629.649 329.956 630.09 330.158C629.876 331.335 629.662 332.511 629.441 333.723C628.732 333.613 628.023 333.503 627.292 333.389C624.941 332.976 624.941 332.976 622.953 333.723C621.976 335.514 622.189 337.1 622.304 339.071C623.463 340.386 623.463 340.386 625.006 340.375C625.796 340.354 625.796 340.354 626.603 340.333C627.133 340.323 627.663 340.312 628.21 340.301C628.819 340.28 628.819 340.28 629.441 340.259C629.655 341.24 629.87 342.22 630.09 343.23C627.079 344.742 624.243 344.667 621.007 343.824C618.904 342.3 617.96 341.396 617.114 339.071C616.858 335.966 617.175 333.966 619.06 331.347C621.855 329.02 625.215 329.263 628.793 329.564Z" fill="#1F2453"/>
<path d="M346.546 330.16C346.332 331.337 346.118 332.513 345.897 333.725C344.609 333.532 343.321 333.339 342.032 333.145C340.501 333.015 340.501 333.015 338.76 334.319C338.524 335.767 338.524 335.767 338.639 337.365C338.679 338.32 338.719 339.276 338.76 340.261C341.116 340.261 343.471 340.261 345.897 340.261C346.112 341.242 346.326 342.222 346.546 343.232C343.535 344.744 340.699 344.669 337.463 343.826C335.36 342.302 334.416 341.398 333.57 339.073C333.314 335.968 333.631 333.968 335.516 331.349C338.622 328.839 342.782 329.011 346.546 330.16Z" fill="#1F2453"/>
<path d="M87.0934 329.453C87.6571 329.457 88.2209 329.46 88.8016 329.464C90.2564 329.564 90.2564 329.564 91.5541 330.158C91.34 331.335 91.1259 332.511 90.9053 333.723C90.2094 333.613 89.5135 333.503 88.7966 333.389C86.7502 333.17 85.6509 333.103 83.7681 333.723C83.7414 334.471 83.7146 335.218 83.687 335.989C83.672 336.409 83.6569 336.83 83.6414 337.263C83.6822 338.663 83.6822 338.663 85.0658 340.259C86.498 340.475 86.498 340.475 88.0666 340.371C88.5969 340.354 89.1272 340.338 89.6735 340.322C90.2832 340.291 90.2832 340.291 90.9053 340.259C91.3335 341.24 91.7617 342.22 92.2029 343.23C89.0617 344.86 85.8774 344.567 82.4705 343.824C80.8314 342.689 80.1302 341.915 79.2263 340.259C78.9598 337.344 78.8204 334.634 80.0374 331.904C82.1254 329.787 84.0375 329.407 87.0934 329.453Z" fill="#1F2453"/>
<path d="M550.936 329.566C555.218 329.566 559.501 329.566 563.913 329.566C563.913 330.743 563.913 331.919 563.913 333.131C562.414 333.131 560.915 333.131 559.371 333.131C559.371 336.661 559.371 340.19 559.371 343.826C558.086 343.826 556.801 343.826 555.478 343.826C555.478 340.297 555.478 336.768 555.478 333.131C553.979 333.131 552.48 333.131 550.936 333.131C550.936 331.955 550.936 330.779 550.936 329.566Z" fill="#1F2453"/>
<path d="M393.259 329.566C394.543 329.566 395.828 329.566 397.152 329.566C397.152 333.292 397.152 337.017 397.152 340.856C399.293 340.856 401.434 340.856 403.64 340.856C403.64 341.836 403.64 342.816 403.64 343.826C400.214 343.826 396.788 343.826 393.259 343.826C393.259 339.121 393.259 334.415 393.259 329.566Z" fill="#1F2453"/>
<path d="M639.168 329.566C640.667 329.566 642.166 329.566 643.71 329.566C643.71 334.272 643.71 338.978 643.71 343.826C642.211 343.826 640.713 343.826 639.168 343.826C639.168 339.121 639.168 334.415 639.168 329.566Z" fill="#1F2453"/>
<path d="M517.847 329.566C519.345 329.566 520.844 329.566 522.388 329.566C522.388 334.272 522.388 338.978 522.388 343.826C520.89 343.826 519.391 343.826 517.847 343.826C517.847 339.121 517.847 334.415 517.847 329.566Z" fill="#1F2453"/>
<path d="M355.625 329.566C356.909 329.566 358.194 329.566 359.517 329.566C359.517 334.272 359.517 338.978 359.517 343.826C358.233 343.826 356.948 343.826 355.625 343.826C355.625 339.121 355.625 334.415 355.625 329.566Z" fill="#1F2453"/>
<path d="M151.304 325.271C151.819 325.28 152.334 325.288 152.865 325.297C153.638 325.303 153.638 325.303 154.426 325.309C155.785 325.408 155.785 325.408 157.082 326.003C156.636 327.154 156.636 327.154 155.785 328.379C153.624 329.021 151.555 329.032 149.296 328.973C148.891 327.859 148.891 327.859 148.647 326.597C149.945 325.408 149.945 325.408 151.304 325.271Z" fill="#1F2453"/>
</svg>
